<svg width="37" height="36" viewBox="0 0 37 36" fill="none" xmlns="http://www.w3.org/2000/svg">
<path d="M7.32471 28.9139C7.4126 28.9139 7.50049 28.9051 7.58838 28.892L14.98 27.6008C15.0679 27.5833 15.1514 27.5439 15.2129 27.4783L33.8413 8.92485C33.882 8.88436 33.9144 8.83626 33.9364 8.78331C33.9585 8.73036 33.9698 8.6736 33.9698 8.61628C33.9698 8.55896 33.9585 8.5022 33.9364 8.44925C33.9144 8.3963 33.882 8.34821 33.8413 8.30771L26.5376 1.02903C26.4541 0.945868 26.3442 0.9021 26.2256 0.9021C26.1069 0.9021 25.9971 0.945868 25.9136 1.02903L7.28516 19.5825C7.21924 19.6481 7.17969 19.7269 7.16211 19.8144L5.86572 27.1763C5.82297 27.4107 5.83825 27.6521 5.91023 27.8793C5.9822 28.1066 6.10872 28.313 6.27881 28.4806C6.56885 28.7607 6.93359 28.9139 7.32471 28.9139ZM10.2866 21.2807L26.2256 5.41025L29.4468 8.61847L13.5078 24.4889L9.60107 25.1761L10.2866 21.2807ZM34.6719 32.5904H2.32812C1.55029 32.5904 0.921875 33.2163 0.921875 33.991V35.5667C0.921875 35.7593 1.08008 35.9168 1.27344 35.9168H35.7266C35.9199 35.9168 36.0781 35.7593 36.0781 35.5667V33.991C36.0781 33.2163 35.4497 32.5904 34.6719 32.5904Z" fill="#6F1AE3"/>
</svg>
