<svg viewBox="0 0 1920 265" fill="none" xmlns="http://www.w3.org/2000/svg">
<rect y="0.855225" width="1920" height="263.934" fill="#6F1AE3" fill-opacity="0.05"/>
<g clip-path="url(#clip0_17_791)">
<path d="M389 262.838V263.793H211.709V6.83105H212.674V262.838H389Z" fill="#E7DE0F"/>
<path d="M334.429 233.499C334.429 233.499 333.874 236.3 333.047 240.542C331.874 246.505 330.173 255.324 328.743 263.23H223.67C231.355 250.995 241.636 238.082 249.816 228.426L250.426 227.703C250.691 227.394 250.948 227.093 251.206 226.791C254.445 223.005 257.278 219.802 259.392 217.444C259.392 217.437 259.399 217.437 259.406 217.437C261.88 214.683 263.377 213.095 263.377 213.095L266.007 213.852L272.079 215.594L316.768 228.426L334.429 233.499Z" fill="#6F1AE3"/>
<path d="M339.429 236.671C339.226 246.413 288.204 232.447 280.524 225.516C272.843 218.581 257.83 230.337 250.395 225.817C242.961 221.292 263.811 204.137 263.811 204.137C263.646 200.056 262.382 196.091 260.152 192.653C256.492 187.226 260.152 190.243 262.358 187.713C264.559 185.183 265.206 165.041 265.206 165.041L260.21 150.01C257.841 142.892 257.777 135.22 260.025 128.064C262.273 120.908 266.721 114.622 272.751 110.083L285.153 94.3744L304.058 93.1667L312.598 102.818L329.673 114.274L326.689 150.855C326.689 150.855 327.611 156.287 328.963 164.434C329.885 170 331.01 176.84 332.173 184.081C335.673 205.88 339.54 231.311 339.429 236.671Z" fill="#E7DE0F"/>
<path d="M356.317 224.753L351.943 205.127L362.934 201.092L366.812 222.005C367.808 222.777 368.567 223.808 369.003 224.983C369.439 226.158 369.535 227.43 369.28 228.656C369.025 229.882 368.429 231.013 367.559 231.922C366.69 232.832 365.581 233.483 364.357 233.804C363.133 234.124 361.844 234.101 360.633 233.736C359.422 233.372 358.338 232.68 357.502 231.74C356.667 230.8 356.114 229.648 355.904 228.413C355.695 227.179 355.838 225.911 356.317 224.753H356.317Z" fill="#F6BE4F"/>
<path d="M311.815 106.254L312.141 106.207C315.173 105.777 318.266 106.084 321.151 107.102C324.036 108.119 326.627 109.817 328.699 112.048C334.108 117.863 341.283 126.658 345.616 136.299C353.269 153.326 356.199 161.076 356.694 167.677C357.189 174.277 355.396 172.749 358.338 176.184C361.281 179.619 362.579 174.546 362.431 181.526C362.282 188.505 359.587 188.371 362.406 190.156C365.225 191.94 367.153 190.803 366.498 195.497C365.843 200.191 366.61 201.462 366.733 203.113C366.857 204.763 370.677 215.434 370.677 215.434C370.677 215.434 358.475 218.319 353.456 223.001C353.456 223.001 353.233 211.07 350.798 209.921C348.362 208.772 346.05 209.274 346.829 206.23C347.608 203.186 351.206 201.927 346.841 201.915C342.477 201.903 316.255 146.228 316.255 146.228L311.815 106.254Z" fill="#E7DE0F"/>
<path d="M313.162 74.7068C314.923 63.9799 307.555 53.873 296.706 52.1322C285.857 50.3915 275.635 57.6762 273.874 68.403C272.114 79.1299 279.481 89.2368 290.33 90.9775C301.18 92.7183 311.402 85.4336 313.162 74.7068Z" fill="#F6BE4F"/>
<path d="M316.714 65.161C318.078 69.6746 315.319 74.8366 311.739 71.2053C310.171 69.6151 310.239 67.6344 308.073 67.0617C306.324 66.5973 304.442 67.1281 302.846 67.9652C302.561 68.1129 301.286 64.4255 301.017 64.5852C300.839 64.4678 301.661 68.2054 301.472 68.1035C300.044 67.3483 298.379 67.1631 296.818 67.5859C298.051 67.9944 299.124 68.776 299.883 69.8202C299.349 70.174 298.809 70.5287 298.255 70.8431C297.215 71.4364 287.73 70.9085 286.534 70.7903C280.795 70.2235 283.64 73.8396 281.272 79.0394C281.213 79.1694 281.153 79.3012 281.092 79.4348L281.001 79.7678C281.151 78.3022 276.564 77.21 276.83 79.2731C277.019 80.7378 278.301 83.9937 279.019 85.287C272.139 80.6385 265.438 75.6597 271.146 64.9009C271.879 63.5204 271.259 61.7139 272.068 60.3679C272.877 59.0289 274.566 58.0892 276.059 58.5998C275.933 56.2456 276.454 53.9014 277.567 51.8166C278.68 49.7317 280.344 47.9841 282.382 46.7595C284.419 45.535 286.754 44.8792 289.139 44.8619C291.523 44.8447 293.868 45.4666 295.923 46.6615C297.833 47.7696 299.137 51.5539 301.178 50.6886C305.108 49.0231 306.832 50.6081 307.166 53.3304C307.336 54.7141 310.107 53.0576 311.317 53.7787C312.718 54.6155 312.958 56.3673 313.168 58.0531C311.918 58.1749 310.733 58.6625 309.765 59.4534C311.058 59.323 312.36 59.5991 313.486 60.2425C313.507 60.252 313.528 60.2635 313.547 60.2767C314.288 63.0627 314.212 63.6803 316.714 65.161Z" fill="#6F1AE3"/>
<path d="M389 99.1577V104.451H356.887C356.535 104.453 356.186 104.387 355.86 104.256C355.534 104.125 355.237 103.931 354.987 103.686C354.737 103.442 354.538 103.151 354.401 102.83C354.265 102.509 354.194 102.164 354.192 101.816C354.191 101.468 354.259 101.123 354.392 100.801C354.526 100.479 354.722 100.186 354.97 99.9393C355.218 99.6923 355.513 99.4962 355.838 99.3621C356.163 99.228 356.511 99.1585 356.863 99.1577H389Z" fill="#6F1AE3"/>
<path d="M206.332 144.82C203.642 141.042 201.409 136.965 199.678 132.673C199.626 132.544 199.535 132.433 199.419 132.355C199.302 132.276 199.164 132.235 199.023 132.235C198.882 132.235 198.744 132.276 198.628 132.355C198.511 132.433 198.421 132.544 198.369 132.673C196.639 136.965 194.406 141.042 191.716 144.82C191.627 144.942 191.579 145.088 191.58 145.239C191.581 145.389 191.631 145.535 191.723 145.655C191.815 145.776 191.943 145.863 192.089 145.906C192.235 145.948 192.391 145.943 192.533 145.891L198.093 143.902V177.927H199.953V143.902L205.515 145.891C205.657 145.943 205.813 145.948 205.959 145.906C206.105 145.863 206.233 145.776 206.325 145.656C206.417 145.536 206.467 145.39 206.468 145.239C206.469 145.089 206.421 144.942 206.332 144.82Z" fill="#E7DE0F"/>
<path d="M389 113.043V158.24H387.392V124.212L381.836 126.202C381.693 126.255 381.537 126.261 381.39 126.219C381.244 126.177 381.115 126.09 381.023 125.97C380.931 125.85 380.88 125.703 380.879 125.553C380.877 125.402 380.925 125.255 381.015 125.133C383.704 121.355 385.937 117.278 387.667 112.986C387.704 112.898 387.757 112.818 387.825 112.75C387.893 112.683 387.974 112.63 388.063 112.594C388.149 112.56 388.241 112.543 388.333 112.545C388.426 112.546 388.517 112.565 388.602 112.602C388.687 112.638 388.763 112.691 388.828 112.757C388.892 112.822 388.942 112.9 388.975 112.986C388.985 113.005 388.99 113.024 389 113.043Z" fill="#E7DE0F"/>
<path d="M320.279 227.869C313.841 222.895 311.051 209.447 297.826 205.789C290.113 203.655 283.609 206.171 272.704 210.389C258.332 215.947 252 222.252 243.494 227.869L320.279 227.869Z" fill="#280C4E"/>
<path d="M389 202.11V227.87H330.602C332.996 226.033 335.149 222.949 337.529 219.159C340.585 214.291 344.022 208.257 348.84 202.205C348.864 202.172 348.893 202.143 348.917 202.11H389Z" fill="#280C4E"/>
<path d="M389 177.251V199.351H351.215C354.338 195.752 357.84 192.493 361.662 189.628C362.69 188.85 363.742 188.103 364.819 187.389C368.27 185.111 371.923 183.147 375.734 181.523C380.015 179.701 384.455 178.271 389 177.251Z" fill="#280C4E"/>
<path d="M389 163.471V191.069C386.053 191.067 383.182 190.142 380.798 188.427C378.415 186.713 376.643 184.295 375.734 181.523C375.281 180.15 375.051 178.714 375.054 177.27C375.054 173.612 376.523 170.104 379.139 167.517C381.754 164.929 385.301 163.474 389 163.471Z" fill="#6F1AE3"/>
<path d="M233.95 122.847C233.951 123.194 233.883 123.538 233.75 123.86C233.617 124.181 233.421 124.473 233.173 124.719C232.926 124.966 232.632 125.162 232.308 125.296C231.984 125.43 231.636 125.499 231.285 125.501H176V120.207H231.265C231.975 120.206 232.657 120.483 233.16 120.978C233.663 121.473 233.947 122.145 233.95 122.847Z" fill="#6F1AE3"/>
<path d="M206.182 210.682L215.791 192.973L206.325 186.134L196.839 205.215C195.668 205.689 194.654 206.478 193.911 207.491C193.168 208.504 192.726 209.703 192.634 210.951C192.542 212.199 192.804 213.448 193.391 214.557C193.977 215.666 194.865 216.591 195.955 217.229C197.044 217.866 198.291 218.191 199.557 218.166C200.823 218.141 202.056 217.767 203.118 217.087C204.181 216.407 205.031 215.447 205.572 214.315C206.113 213.184 206.324 211.926 206.182 210.682V210.682Z" fill="#F6BE4F"/>
<path d="M285.804 113.005L285.503 112.873C282.704 111.643 279.643 111.107 276.587 111.31C273.531 111.513 270.571 112.449 267.963 114.038C261.157 118.18 251.833 124.712 245.01 132.824C232.961 147.15 223.818 149.439 221.525 155.658C219.233 161.876 221.378 160.888 217.602 163.402C213.825 165.916 213.972 160.685 212.194 167.441C210.416 174.197 213.046 174.793 209.843 175.752C206.64 176.711 205.096 175.098 204.435 179.791C203.774 184.484 202.687 185.501 202.114 187.056C201.54 188.611 194.928 197.852 194.928 197.852C194.928 197.852 205.876 203.91 209.417 209.766C209.417 209.766 212.914 198.345 215.574 197.895C218.234 197.444 220.321 198.549 220.409 195.41C220.497 192.272 217.382 190.093 221.585 191.255C225.787 192.417 256.804 159.242 256.804 159.242L285.804 113.005Z" fill="#E7DE0F"/>
<path d="M213.24 198.253C213.497 190.636 207.459 184.255 199.755 184.001C192.051 183.748 185.598 189.717 185.341 197.334C185.085 204.952 191.122 211.332 198.826 211.586C206.53 211.84 212.984 205.87 213.24 198.253Z" fill="#280C4E"/>
</g>
<rect x="838" y="182.123" width="1092" height="4.97987" rx="2.48994" fill="#6F1AE3"/>
<rect x="1633" y="88.501" width="1064" height="4.97987" rx="2.48994" fill="#6F1AE3"/>
<rect x="1168" y="228.934" width="762" height="4.97989" rx="2.48994" fill="#E7DE0F"/>
<rect x="1388" y="135.312" width="762" height="4.97987" rx="2.48994" fill="#E7DE0F"/>
<path d="M669.465 135.394V138H657.379V135.394H669.465ZM658.01 113.828V138H654.806V113.828H658.01ZM680.293 138.332C679.042 138.332 677.908 138.122 676.89 137.701C675.883 137.27 675.014 136.666 674.283 135.892C673.564 135.117 673.01 134.198 672.623 133.136C672.236 132.073 672.042 130.911 672.042 129.649V128.952C672.042 127.491 672.258 126.191 672.69 125.051C673.121 123.9 673.708 122.926 674.449 122.129C675.191 121.332 676.032 120.729 676.973 120.319C677.913 119.91 678.887 119.705 679.895 119.705C681.178 119.705 682.285 119.926 683.215 120.369C684.156 120.812 684.925 121.432 685.523 122.229C686.12 123.014 686.563 123.944 686.851 125.018C687.138 126.08 687.282 127.242 687.282 128.504V129.882H673.868V127.375H684.211V127.143C684.167 126.346 684.001 125.571 683.713 124.818C683.436 124.066 682.994 123.446 682.385 122.959C681.776 122.472 680.946 122.229 679.895 122.229C679.197 122.229 678.555 122.378 677.969 122.677C677.382 122.965 676.879 123.396 676.458 123.972C676.038 124.547 675.711 125.25 675.479 126.08C675.246 126.91 675.13 127.868 675.13 128.952V129.649C675.13 130.502 675.246 131.304 675.479 132.057C675.722 132.798 676.071 133.451 676.524 134.016C676.989 134.58 677.548 135.023 678.201 135.344C678.865 135.665 679.618 135.825 680.459 135.825C681.544 135.825 682.462 135.604 683.215 135.161C683.968 134.718 684.626 134.126 685.191 133.385L687.05 134.862C686.663 135.449 686.17 136.008 685.572 136.539C684.975 137.07 684.239 137.502 683.364 137.834C682.501 138.166 681.477 138.332 680.293 138.332ZM698.559 120.037V122.395H688.847V120.037H698.559ZM692.134 115.671H695.205V133.551C695.205 134.16 695.299 134.619 695.487 134.929C695.676 135.239 695.919 135.443 696.218 135.543C696.517 135.643 696.838 135.692 697.181 135.692C697.435 135.692 697.701 135.67 697.978 135.626C698.265 135.571 698.481 135.526 698.625 135.493L698.642 138C698.398 138.077 698.077 138.149 697.679 138.216C697.291 138.293 696.821 138.332 696.268 138.332C695.515 138.332 694.823 138.183 694.193 137.884C693.562 137.585 693.058 137.087 692.682 136.39C692.317 135.681 692.134 134.729 692.134 133.534V115.671ZM705.436 112.5V114.625C705.436 115.289 705.32 115.992 705.087 116.733C704.866 117.464 704.539 118.172 704.108 118.858C703.676 119.534 703.156 120.126 702.547 120.635L700.787 119.423C701.308 118.692 701.7 117.945 701.966 117.182C702.243 116.407 702.381 115.571 702.381 114.675V112.5H705.436ZM717.908 133.235C717.908 132.793 717.808 132.383 717.609 132.007C717.421 131.619 717.028 131.271 716.43 130.961C715.843 130.64 714.958 130.363 713.774 130.131C712.778 129.921 711.876 129.672 711.068 129.384C710.271 129.096 709.59 128.747 709.026 128.338C708.472 127.928 708.046 127.447 707.747 126.894C707.449 126.34 707.299 125.693 707.299 124.951C707.299 124.243 707.454 123.573 707.764 122.942C708.085 122.312 708.533 121.753 709.109 121.266C709.695 120.779 710.398 120.397 711.217 120.12C712.036 119.843 712.949 119.705 713.956 119.705C715.395 119.705 716.624 119.96 717.642 120.469C718.66 120.978 719.44 121.659 719.983 122.511C720.525 123.352 720.796 124.287 720.796 125.316H717.725C717.725 124.818 717.576 124.337 717.277 123.872C716.989 123.396 716.563 123.003 715.998 122.693C715.445 122.383 714.764 122.229 713.956 122.229C713.104 122.229 712.412 122.361 711.881 122.627C711.361 122.882 710.979 123.208 710.736 123.606C710.503 124.005 710.387 124.425 710.387 124.868C710.387 125.2 710.442 125.499 710.553 125.765C710.675 126.019 710.885 126.257 711.184 126.479C711.483 126.689 711.903 126.888 712.446 127.076C712.988 127.264 713.68 127.452 714.521 127.641C715.993 127.973 717.205 128.371 718.157 128.836C719.108 129.301 719.817 129.871 720.282 130.546C720.746 131.221 720.979 132.04 720.979 133.003C720.979 133.789 720.813 134.508 720.481 135.161C720.16 135.814 719.689 136.379 719.07 136.854C718.461 137.319 717.73 137.685 716.878 137.95C716.037 138.205 715.091 138.332 714.039 138.332C712.457 138.332 711.118 138.05 710.022 137.485C708.926 136.921 708.096 136.19 707.532 135.294C706.967 134.397 706.685 133.451 706.685 132.455H709.773C709.817 133.296 710.061 133.966 710.503 134.464C710.946 134.951 711.488 135.299 712.13 135.51C712.772 135.709 713.409 135.809 714.039 135.809C714.881 135.809 715.583 135.698 716.148 135.477C716.723 135.255 717.16 134.951 717.459 134.563C717.758 134.176 717.908 133.733 717.908 133.235ZM736.841 123.606V138H733.753V120.037H736.675L736.841 123.606ZM736.21 128.338L734.783 128.288C734.794 127.06 734.954 125.925 735.264 124.885C735.574 123.833 736.033 122.92 736.642 122.146C737.251 121.371 738.009 120.773 738.916 120.353C739.824 119.921 740.875 119.705 742.071 119.705C742.912 119.705 743.687 119.827 744.395 120.07C745.103 120.303 745.718 120.674 746.238 121.183C746.758 121.692 747.162 122.345 747.45 123.142C747.737 123.938 747.881 124.901 747.881 126.03V138H744.81V126.18C744.81 125.239 744.65 124.486 744.329 123.922C744.019 123.357 743.576 122.948 743 122.693C742.425 122.428 741.75 122.295 740.975 122.295C740.068 122.295 739.309 122.455 738.701 122.776C738.092 123.097 737.605 123.54 737.24 124.104C736.874 124.669 736.609 125.316 736.443 126.047C736.288 126.766 736.21 127.53 736.21 128.338ZM747.848 126.645L745.79 127.275C745.801 126.29 745.961 125.344 746.271 124.437C746.592 123.529 747.051 122.721 747.649 122.013C748.258 121.304 749.005 120.745 749.89 120.336C750.776 119.915 751.788 119.705 752.928 119.705C753.891 119.705 754.743 119.832 755.485 120.087C756.237 120.341 756.868 120.734 757.377 121.266C757.898 121.786 758.291 122.455 758.556 123.274C758.822 124.093 758.955 125.067 758.955 126.196V138H755.867V126.163C755.867 125.156 755.706 124.376 755.385 123.822C755.075 123.258 754.633 122.865 754.057 122.644C753.493 122.411 752.818 122.295 752.032 122.295C751.357 122.295 750.759 122.411 750.239 122.644C749.719 122.876 749.281 123.197 748.927 123.606C748.573 124.005 748.302 124.464 748.114 124.984C747.937 125.505 747.848 126.058 747.848 126.645ZM774.365 134.929V125.682C774.365 124.973 774.221 124.359 773.933 123.839C773.656 123.308 773.236 122.898 772.671 122.61C772.107 122.323 771.41 122.179 770.58 122.179C769.805 122.179 769.124 122.312 768.538 122.577C767.962 122.843 767.508 123.191 767.176 123.623C766.855 124.055 766.695 124.52 766.695 125.018H763.624C763.624 124.376 763.79 123.739 764.122 123.108C764.454 122.478 764.93 121.908 765.549 121.398C766.18 120.878 766.933 120.469 767.807 120.17C768.693 119.86 769.678 119.705 770.762 119.705C772.068 119.705 773.219 119.926 774.215 120.369C775.223 120.812 776.008 121.481 776.573 122.378C777.148 123.263 777.436 124.376 777.436 125.715V134.082C777.436 134.68 777.486 135.316 777.586 135.991C777.696 136.666 777.857 137.247 778.067 137.734V138H774.863C774.708 137.646 774.586 137.175 774.498 136.589C774.409 135.991 774.365 135.438 774.365 134.929ZM774.896 127.109L774.929 129.268H771.825C770.95 129.268 770.17 129.34 769.484 129.483C768.798 129.616 768.222 129.821 767.757 130.098C767.293 130.374 766.938 130.723 766.695 131.144C766.451 131.553 766.33 132.035 766.33 132.588C766.33 133.152 766.457 133.667 766.711 134.132C766.966 134.597 767.348 134.967 767.857 135.244C768.377 135.51 769.014 135.643 769.766 135.643C770.707 135.643 771.537 135.443 772.256 135.045C772.976 134.646 773.546 134.16 773.966 133.584C774.398 133.008 774.63 132.45 774.664 131.907L775.975 133.385C775.898 133.85 775.687 134.364 775.344 134.929C775.001 135.493 774.542 136.035 773.966 136.556C773.402 137.065 772.727 137.491 771.941 137.834C771.166 138.166 770.292 138.332 769.318 138.332C768.1 138.332 767.032 138.094 766.114 137.618C765.206 137.142 764.498 136.506 763.989 135.709C763.491 134.901 763.242 133.999 763.242 133.003C763.242 132.04 763.43 131.193 763.806 130.463C764.183 129.721 764.725 129.107 765.433 128.62C766.141 128.122 766.994 127.746 767.99 127.491C768.986 127.237 770.098 127.109 771.327 127.109H774.896ZM785.508 123.872V138H782.437V120.037H785.342L785.508 123.872ZM784.778 128.338L783.5 128.288C783.511 127.06 783.693 125.925 784.048 124.885C784.402 123.833 784.9 122.92 785.542 122.146C786.184 121.371 786.947 120.773 787.833 120.353C788.729 119.921 789.72 119.705 790.804 119.705C791.69 119.705 792.487 119.827 793.195 120.07C793.903 120.303 794.506 120.679 795.005 121.199C795.514 121.719 795.901 122.395 796.167 123.225C796.432 124.044 796.565 125.045 796.565 126.229V138H793.477V126.196C793.477 125.256 793.339 124.503 793.062 123.938C792.785 123.363 792.381 122.948 791.85 122.693C791.319 122.428 790.666 122.295 789.891 122.295C789.128 122.295 788.43 122.455 787.799 122.776C787.18 123.097 786.643 123.54 786.189 124.104C785.746 124.669 785.398 125.316 785.143 126.047C784.9 126.766 784.778 127.53 784.778 128.338ZM811.992 134.929V125.682C811.992 124.973 811.848 124.359 811.56 123.839C811.284 123.308 810.863 122.898 810.299 122.61C809.734 122.323 809.037 122.179 808.207 122.179C807.432 122.179 806.751 122.312 806.165 122.577C805.589 122.843 805.135 123.191 804.803 123.623C804.482 124.055 804.322 124.52 804.322 125.018H801.251C801.251 124.376 801.417 123.739 801.749 123.108C802.081 122.478 802.557 121.908 803.176 121.398C803.807 120.878 804.56 120.469 805.434 120.17C806.32 119.86 807.305 119.705 808.389 119.705C809.695 119.705 810.846 119.926 811.842 120.369C812.85 120.812 813.635 121.481 814.2 122.378C814.775 123.263 815.063 124.376 815.063 125.715V134.082C815.063 134.68 815.113 135.316 815.213 135.991C815.323 136.666 815.484 137.247 815.694 137.734V138H812.49C812.335 137.646 812.213 137.175 812.125 136.589C812.036 135.991 811.992 135.438 811.992 134.929ZM812.523 127.109L812.556 129.268H809.452C808.578 129.268 807.797 129.34 807.111 129.483C806.425 129.616 805.849 129.821 805.384 130.098C804.92 130.374 804.565 130.723 804.322 131.144C804.079 131.553 803.957 132.035 803.957 132.588C803.957 133.152 804.084 133.667 804.339 134.132C804.593 134.597 804.975 134.967 805.484 135.244C806.004 135.51 806.641 135.643 807.393 135.643C808.334 135.643 809.164 135.443 809.884 135.045C810.603 134.646 811.173 134.16 811.593 133.584C812.025 133.008 812.258 132.45 812.291 131.907L813.602 133.385C813.525 133.85 813.315 134.364 812.971 134.929C812.628 135.493 812.169 136.035 811.593 136.556C811.029 137.065 810.354 137.491 809.568 137.834C808.793 138.166 807.919 138.332 806.945 138.332C805.728 138.332 804.66 138.094 803.741 137.618C802.833 137.142 802.125 136.506 801.616 135.709C801.118 134.901 800.869 133.999 800.869 133.003C800.869 132.04 801.057 131.193 801.433 130.463C801.81 129.721 802.352 129.107 803.06 128.62C803.769 128.122 804.621 127.746 805.617 127.491C806.613 127.237 807.725 127.109 808.954 127.109H812.523ZM831.702 120.037H834.491V137.618C834.491 139.201 834.17 140.551 833.528 141.669C832.886 142.787 831.99 143.633 830.839 144.209C829.699 144.796 828.382 145.089 826.887 145.089C826.268 145.089 825.537 144.989 824.696 144.79C823.866 144.602 823.047 144.275 822.239 143.811C821.442 143.357 820.773 142.743 820.23 141.968L821.841 140.142C822.593 141.049 823.379 141.68 824.198 142.034C825.028 142.388 825.847 142.565 826.655 142.565C827.629 142.565 828.47 142.383 829.179 142.018C829.887 141.652 830.435 141.11 830.822 140.391C831.221 139.682 831.42 138.808 831.42 137.768V123.988L831.702 120.037ZM819.334 129.218V128.869C819.334 127.497 819.494 126.252 819.815 125.134C820.147 124.005 820.618 123.036 821.226 122.229C821.846 121.421 822.593 120.801 823.468 120.369C824.342 119.926 825.327 119.705 826.423 119.705C827.552 119.705 828.537 119.904 829.378 120.303C830.23 120.69 830.949 121.26 831.536 122.013C832.134 122.754 832.604 123.651 832.947 124.702C833.29 125.754 833.528 126.943 833.661 128.271V129.799C833.539 131.116 833.301 132.3 832.947 133.352C832.604 134.403 832.134 135.299 831.536 136.041C830.949 136.783 830.23 137.353 829.378 137.751C828.526 138.138 827.529 138.332 826.389 138.332C825.316 138.332 824.342 138.105 823.468 137.651C822.604 137.198 821.863 136.561 821.243 135.742C820.623 134.923 820.147 133.96 819.815 132.854C819.494 131.736 819.334 130.524 819.334 129.218ZM822.405 128.869V129.218C822.405 130.114 822.494 130.955 822.671 131.741C822.859 132.527 823.141 133.219 823.517 133.816C823.905 134.414 824.397 134.884 824.995 135.228C825.593 135.56 826.306 135.726 827.137 135.726C828.155 135.726 828.996 135.51 829.66 135.078C830.324 134.646 830.85 134.076 831.237 133.368C831.636 132.66 831.945 131.891 832.167 131.061V127.06C832.045 126.451 831.857 125.864 831.602 125.3C831.359 124.724 831.038 124.215 830.639 123.772C830.252 123.319 829.771 122.959 829.195 122.693C828.62 122.428 827.944 122.295 827.17 122.295C826.329 122.295 825.604 122.472 824.995 122.826C824.397 123.169 823.905 123.645 823.517 124.254C823.141 124.852 822.859 125.549 822.671 126.346C822.494 127.132 822.405 127.973 822.405 128.869ZM846.78 138.332C845.53 138.332 844.395 138.122 843.377 137.701C842.37 137.27 841.501 136.666 840.77 135.892C840.051 135.117 839.498 134.198 839.11 133.136C838.723 132.073 838.529 130.911 838.529 129.649V128.952C838.529 127.491 838.745 126.191 839.177 125.051C839.608 123.9 840.195 122.926 840.936 122.129C841.678 121.332 842.519 120.729 843.46 120.319C844.401 119.91 845.375 119.705 846.382 119.705C847.666 119.705 848.772 119.926 849.702 120.369C850.643 120.812 851.412 121.432 852.01 122.229C852.607 123.014 853.05 123.944 853.338 125.018C853.626 126.08 853.769 127.242 853.769 128.504V129.882H840.355V127.375H850.698V127.143C850.654 126.346 850.488 125.571 850.2 124.818C849.923 124.066 849.481 123.446 848.872 122.959C848.263 122.472 847.433 122.229 846.382 122.229C845.684 122.229 845.043 122.378 844.456 122.677C843.869 122.965 843.366 123.396 842.945 123.972C842.525 124.547 842.198 125.25 841.966 126.08C841.733 126.91 841.617 127.868 841.617 128.952V129.649C841.617 130.502 841.733 131.304 841.966 132.057C842.209 132.798 842.558 133.451 843.012 134.016C843.476 134.58 844.035 135.023 844.688 135.344C845.352 135.665 846.105 135.825 846.946 135.825C848.031 135.825 848.949 135.604 849.702 135.161C850.455 134.718 851.113 134.126 851.678 133.385L853.537 134.862C853.15 135.449 852.657 136.008 852.059 136.539C851.462 137.07 850.726 137.502 849.851 137.834C848.988 138.166 847.964 138.332 846.78 138.332ZM871.176 136.141L876.173 120.037H879.46L872.255 140.772C872.089 141.215 871.868 141.691 871.591 142.2C871.325 142.72 870.982 143.213 870.562 143.678C870.141 144.143 869.632 144.519 869.034 144.807C868.448 145.105 867.745 145.255 866.926 145.255C866.682 145.255 866.372 145.222 865.996 145.155C865.62 145.089 865.354 145.034 865.199 144.989L865.183 142.499C865.271 142.51 865.41 142.521 865.598 142.532C865.797 142.554 865.935 142.565 866.013 142.565C866.71 142.565 867.302 142.471 867.789 142.283C868.276 142.106 868.686 141.802 869.018 141.37C869.361 140.95 869.654 140.368 869.898 139.627L871.176 136.141ZM867.507 120.037L872.172 133.982L872.969 137.22L870.761 138.349L864.153 120.037H867.507ZM881.323 129.218V128.836C881.323 127.541 881.512 126.34 881.888 125.233C882.264 124.116 882.806 123.147 883.515 122.328C884.223 121.498 885.081 120.856 886.088 120.402C887.095 119.938 888.224 119.705 889.475 119.705C890.736 119.705 891.871 119.938 892.878 120.402C893.896 120.856 894.76 121.498 895.468 122.328C896.187 123.147 896.735 124.116 897.111 125.233C897.488 126.34 897.676 127.541 897.676 128.836V129.218C897.676 130.513 897.488 131.714 897.111 132.82C896.735 133.927 896.187 134.896 895.468 135.726C894.76 136.545 893.902 137.187 892.895 137.651C891.899 138.105 890.77 138.332 889.508 138.332C888.246 138.332 887.112 138.105 886.105 137.651C885.097 137.187 884.234 136.545 883.515 135.726C882.806 134.896 882.264 133.927 881.888 132.82C881.512 131.714 881.323 130.513 881.323 129.218ZM884.395 128.836V129.218C884.395 130.114 884.5 130.961 884.71 131.758C884.92 132.544 885.236 133.241 885.656 133.85C886.088 134.458 886.625 134.94 887.267 135.294C887.909 135.637 888.656 135.809 889.508 135.809C890.349 135.809 891.085 135.637 891.716 135.294C892.358 134.94 892.889 134.458 893.31 133.85C893.73 133.241 894.046 132.544 894.256 131.758C894.477 130.961 894.588 130.114 894.588 129.218V128.836C894.588 127.951 894.477 127.115 894.256 126.329C894.046 125.532 893.725 124.829 893.293 124.221C892.873 123.601 892.341 123.114 891.699 122.76C891.068 122.406 890.327 122.229 889.475 122.229C888.634 122.229 887.892 122.406 887.25 122.76C886.619 123.114 886.088 123.601 885.656 124.221C885.236 124.829 884.92 125.532 884.71 126.329C884.5 127.115 884.395 127.951 884.395 128.836ZM912.688 133.85V120.037H915.776V138H912.837L912.688 133.85ZM913.269 130.064L914.547 130.031C914.547 131.227 914.42 132.333 914.165 133.352C913.922 134.359 913.523 135.233 912.97 135.975C912.417 136.716 911.692 137.297 910.795 137.718C909.899 138.127 908.808 138.332 907.525 138.332C906.65 138.332 905.848 138.205 905.117 137.95C904.398 137.696 903.778 137.303 903.258 136.771C902.738 136.24 902.334 135.549 902.046 134.696C901.769 133.844 901.631 132.82 901.631 131.625V120.037H904.702V131.658C904.702 132.466 904.791 133.136 904.968 133.667C905.156 134.187 905.405 134.602 905.715 134.912C906.036 135.211 906.39 135.421 906.778 135.543C907.176 135.665 907.585 135.726 908.006 135.726C909.312 135.726 910.347 135.477 911.111 134.979C911.874 134.469 912.422 133.789 912.754 132.937C913.097 132.073 913.269 131.116 913.269 130.064ZM923.699 122.859V138H920.627V120.037H923.616L923.699 122.859ZM929.31 119.938L929.293 122.793C929.039 122.738 928.795 122.704 928.563 122.693C928.341 122.671 928.087 122.66 927.799 122.66C927.091 122.66 926.465 122.771 925.923 122.992C925.381 123.214 924.921 123.523 924.545 123.922C924.169 124.32 923.87 124.796 923.649 125.35C923.438 125.892 923.3 126.49 923.234 127.143L922.37 127.641C922.37 126.556 922.476 125.538 922.686 124.586C922.907 123.634 923.245 122.793 923.699 122.062C924.152 121.321 924.728 120.745 925.425 120.336C926.133 119.915 926.975 119.705 927.949 119.705C928.17 119.705 928.424 119.733 928.712 119.788C929 119.832 929.199 119.882 929.31 119.938ZM943.977 123.606V138H940.889V120.037H943.811L943.977 123.606ZM943.346 128.338L941.918 128.288C941.929 127.06 942.09 125.925 942.4 124.885C942.71 123.833 943.169 122.92 943.778 122.146C944.386 121.371 945.145 120.773 946.052 120.353C946.96 119.921 948.011 119.705 949.206 119.705C950.048 119.705 950.822 119.827 951.531 120.07C952.239 120.303 952.853 120.674 953.373 121.183C953.894 121.692 954.298 122.345 954.585 123.142C954.873 123.938 955.017 124.901 955.017 126.03V138H951.946V126.18C951.946 125.239 951.785 124.486 951.464 123.922C951.154 123.357 950.712 122.948 950.136 122.693C949.561 122.428 948.886 122.295 948.111 122.295C947.203 122.295 946.445 122.455 945.836 122.776C945.228 123.097 944.741 123.54 944.375 124.104C944.01 124.669 943.745 125.316 943.579 126.047C943.424 126.766 943.346 127.53 943.346 128.338ZM954.984 126.645L952.925 127.275C952.936 126.29 953.097 125.344 953.407 124.437C953.728 123.529 954.187 122.721 954.785 122.013C955.393 121.304 956.14 120.745 957.026 120.336C957.911 119.915 958.924 119.705 960.064 119.705C961.027 119.705 961.879 119.832 962.621 120.087C963.373 120.341 964.004 120.734 964.513 121.266C965.033 121.786 965.426 122.455 965.692 123.274C965.957 124.093 966.09 125.067 966.09 126.196V138H963.002V126.163C963.002 125.156 962.842 124.376 962.521 123.822C962.211 123.258 961.768 122.865 961.193 122.644C960.628 122.411 959.953 122.295 959.167 122.295C958.492 122.295 957.895 122.411 957.374 122.644C956.854 122.876 956.417 123.197 956.063 123.606C955.709 124.005 955.438 124.464 955.249 124.984C955.072 125.505 954.984 126.058 954.984 126.645ZM970.095 129.218V128.836C970.095 127.541 970.283 126.34 970.66 125.233C971.036 124.116 971.578 123.147 972.287 122.328C972.995 121.498 973.853 120.856 974.86 120.402C975.867 119.938 976.996 119.705 978.247 119.705C979.508 119.705 980.643 119.938 981.65 120.402C982.668 120.856 983.531 121.498 984.24 122.328C984.959 123.147 985.507 124.116 985.883 125.233C986.26 126.34 986.448 127.541 986.448 128.836V129.218C986.448 130.513 986.26 131.714 985.883 132.82C985.507 133.927 984.959 134.896 984.24 135.726C983.531 136.545 982.674 137.187 981.667 137.651C980.67 138.105 979.542 138.332 978.28 138.332C977.018 138.332 975.884 138.105 974.876 137.651C973.869 137.187 973.006 136.545 972.287 135.726C971.578 134.896 971.036 133.927 970.66 132.82C970.283 131.714 970.095 130.513 970.095 129.218ZM973.167 128.836V129.218C973.167 130.114 973.272 130.961 973.482 131.758C973.692 132.544 974.008 133.241 974.428 133.85C974.86 134.458 975.397 134.94 976.039 135.294C976.681 135.637 977.428 135.809 978.28 135.809C979.121 135.809 979.857 135.637 980.488 135.294C981.13 134.94 981.661 134.458 982.082 133.85C982.502 133.241 982.818 132.544 983.028 131.758C983.249 130.961 983.36 130.114 983.36 129.218V128.836C983.36 127.951 983.249 127.115 983.028 126.329C982.818 125.532 982.497 124.829 982.065 124.221C981.644 123.601 981.113 123.114 980.471 122.76C979.84 122.406 979.099 122.229 978.247 122.229C977.405 122.229 976.664 122.406 976.022 122.76C975.391 123.114 974.86 123.601 974.428 124.221C974.008 124.829 973.692 125.532 973.482 126.329C973.272 127.115 973.167 127.951 973.167 128.836ZM993.541 123.872V138H990.469V120.037H993.375L993.541 123.872ZM992.81 128.338L991.532 128.288C991.543 127.06 991.726 125.925 992.08 124.885C992.434 123.833 992.932 122.92 993.574 122.146C994.216 121.371 994.979 120.773 995.865 120.353C996.761 119.921 997.752 119.705 998.837 119.705C999.722 119.705 1000.52 119.827 1001.23 120.07C1001.94 120.303 1002.54 120.679 1003.04 121.199C1003.55 121.719 1003.93 122.395 1004.2 123.225C1004.46 124.044 1004.6 125.045 1004.6 126.229V138H1001.51V126.196C1001.51 125.256 1001.37 124.503 1001.09 123.938C1000.82 123.363 1000.41 122.948 999.882 122.693C999.351 122.428 998.698 122.295 997.923 122.295C997.16 122.295 996.462 122.455 995.832 122.776C995.212 123.097 994.675 123.54 994.221 124.104C993.779 124.669 993.43 125.316 993.175 126.047C992.932 126.766 992.81 127.53 992.81 128.338ZM1016.95 120.037V122.395H1007.24V120.037H1016.95ZM1010.53 115.671H1013.6V133.551C1013.6 134.16 1013.69 134.619 1013.88 134.929C1014.07 135.239 1014.31 135.443 1014.61 135.543C1014.91 135.643 1015.23 135.692 1015.57 135.692C1015.83 135.692 1016.1 135.67 1016.37 135.626C1016.66 135.571 1016.88 135.526 1017.02 135.493L1017.04 138C1016.79 138.077 1016.47 138.149 1016.07 138.216C1015.69 138.293 1015.22 138.332 1014.66 138.332C1013.91 138.332 1013.22 138.183 1012.59 137.884C1011.96 137.585 1011.45 137.087 1011.08 136.39C1010.71 135.681 1010.53 134.729 1010.53 133.534V115.671ZM1023.8 112.5V138H1020.73V112.5H1023.8ZM1023.07 128.338L1021.79 128.288C1021.8 127.06 1021.98 125.925 1022.34 124.885C1022.69 123.833 1023.19 122.92 1023.83 122.146C1024.47 121.371 1025.24 120.773 1026.12 120.353C1027.02 119.921 1028.01 119.705 1029.09 119.705C1029.98 119.705 1030.77 119.827 1031.48 120.07C1032.19 120.303 1032.79 120.679 1033.29 121.199C1033.8 121.719 1034.19 122.395 1034.45 123.225C1034.72 124.044 1034.85 125.045 1034.85 126.229V138H1031.77V126.196C1031.77 125.256 1031.63 124.503 1031.35 123.938C1031.07 123.363 1030.67 122.948 1030.14 122.693C1029.61 122.428 1028.95 122.295 1028.18 122.295C1027.42 122.295 1026.72 122.455 1026.09 122.776C1025.47 123.097 1024.93 123.54 1024.48 124.104C1024.03 124.669 1023.69 125.316 1023.43 126.047C1023.19 126.766 1023.07 127.53 1023.07 128.338ZM1042.96 112.5V138H1039.87V112.5H1042.96ZM1053.11 136.141L1058.1 120.037H1061.39L1054.19 140.772C1054.02 141.215 1053.8 141.691 1053.52 142.2C1053.26 142.72 1052.91 143.213 1052.49 143.678C1052.07 144.143 1051.56 144.519 1050.96 144.807C1050.38 145.105 1049.68 145.255 1048.86 145.255C1048.61 145.255 1048.3 145.222 1047.93 145.155C1047.55 145.089 1047.28 145.034 1047.13 144.989L1047.11 142.499C1047.2 142.51 1047.34 142.521 1047.53 142.532C1047.73 142.554 1047.87 142.565 1047.94 142.565C1048.64 142.565 1049.23 142.471 1049.72 142.283C1050.21 142.106 1050.62 141.802 1050.95 141.37C1051.29 140.95 1051.58 140.368 1051.83 139.627L1053.11 136.141ZM1049.44 120.037L1054.1 133.982L1054.9 137.22L1052.69 138.349L1046.08 120.037H1049.44ZM1072.92 112.5H1076.01V134.514L1075.74 138H1072.92V112.5ZM1088.14 128.869V129.218C1088.14 130.524 1087.99 131.736 1087.68 132.854C1087.37 133.96 1086.92 134.923 1086.32 135.742C1085.72 136.561 1084.99 137.198 1084.13 137.651C1083.26 138.105 1082.27 138.332 1081.15 138.332C1080.01 138.332 1079.01 138.138 1078.15 137.751C1077.3 137.353 1076.58 136.783 1075.99 136.041C1075.4 135.299 1074.93 134.403 1074.58 133.352C1074.24 132.3 1074 131.116 1073.87 129.799V128.271C1074 126.943 1074.24 125.754 1074.58 124.702C1074.93 123.651 1075.4 122.754 1075.99 122.013C1076.58 121.26 1077.3 120.69 1078.15 120.303C1079 119.904 1079.99 119.705 1081.12 119.705C1082.25 119.705 1083.25 119.926 1084.13 120.369C1085 120.801 1085.73 121.421 1086.32 122.229C1086.92 123.036 1087.37 124.005 1087.68 125.134C1087.99 126.252 1088.14 127.497 1088.14 128.869ZM1085.06 129.218V128.869C1085.06 127.973 1084.97 127.132 1084.81 126.346C1084.64 125.549 1084.38 124.852 1084.01 124.254C1083.64 123.645 1083.16 123.169 1082.57 122.826C1081.97 122.472 1081.23 122.295 1080.36 122.295C1079.58 122.295 1078.91 122.428 1078.33 122.693C1077.77 122.959 1077.29 123.319 1076.89 123.772C1076.49 124.215 1076.16 124.724 1075.91 125.3C1075.66 125.864 1075.48 126.451 1075.36 127.06V131.061C1075.54 131.835 1075.83 132.582 1076.22 133.302C1076.63 134.01 1077.18 134.591 1077.85 135.045C1078.54 135.499 1079.38 135.726 1080.39 135.726C1081.22 135.726 1081.93 135.56 1082.52 135.228C1083.11 134.884 1083.59 134.414 1083.96 133.816C1084.34 133.219 1084.61 132.527 1084.79 131.741C1084.97 130.955 1085.06 130.114 1085.06 129.218ZM1103.19 133.85V120.037H1106.28V138H1103.34L1103.19 133.85ZM1103.77 130.064L1105.05 130.031C1105.05 131.227 1104.92 132.333 1104.67 133.352C1104.42 134.359 1104.02 135.233 1103.47 135.975C1102.92 136.716 1102.19 137.297 1101.3 137.718C1100.4 138.127 1099.31 138.332 1098.03 138.332C1097.15 138.332 1096.35 138.205 1095.62 137.95C1094.9 137.696 1094.28 137.303 1093.76 136.771C1093.24 136.24 1092.83 135.549 1092.55 134.696C1092.27 133.844 1092.13 132.82 1092.13 131.625V120.037H1095.2V131.658C1095.2 132.466 1095.29 133.136 1095.47 133.667C1095.66 134.187 1095.91 134.602 1096.22 134.912C1096.54 135.211 1096.89 135.421 1097.28 135.543C1097.68 135.665 1098.09 135.726 1098.51 135.726C1099.81 135.726 1100.85 135.477 1101.61 134.979C1102.38 134.469 1102.92 133.789 1103.26 132.937C1103.6 132.073 1103.77 131.116 1103.77 130.064ZM1122.45 134.514V112.5H1125.54V138H1122.72L1122.45 134.514ZM1110.36 129.218V128.869C1110.36 127.497 1110.53 126.252 1110.86 125.134C1111.21 124.005 1111.69 123.036 1112.31 122.229C1112.94 121.421 1113.68 120.801 1114.55 120.369C1115.42 119.926 1116.4 119.705 1117.47 119.705C1118.6 119.705 1119.58 119.904 1120.43 120.303C1121.28 120.69 1122 121.26 1122.58 122.013C1123.18 122.754 1123.65 123.651 1123.99 124.702C1124.34 125.754 1124.58 126.943 1124.71 128.271V129.799C1124.59 131.116 1124.35 132.3 1123.99 133.352C1123.65 134.403 1123.18 135.299 1122.58 136.041C1122 136.783 1121.28 137.353 1120.43 137.751C1119.57 138.138 1118.58 138.332 1117.44 138.332C1116.39 138.332 1115.42 138.105 1114.55 137.651C1113.68 137.198 1112.94 136.561 1112.31 135.742C1111.69 134.923 1111.21 133.96 1110.86 132.854C1110.53 131.736 1110.36 130.524 1110.36 129.218ZM1113.45 128.869V129.218C1113.45 130.114 1113.54 130.955 1113.72 131.741C1113.91 132.527 1114.19 133.219 1114.58 133.816C1114.97 134.414 1115.46 134.884 1116.06 135.228C1116.66 135.56 1117.37 135.726 1118.2 135.726C1119.22 135.726 1120.05 135.51 1120.71 135.078C1121.37 134.646 1121.9 134.076 1122.3 133.368C1122.7 132.66 1123.01 131.891 1123.23 131.061V127.06C1123.1 126.451 1122.9 125.864 1122.65 125.3C1122.41 124.724 1122.09 124.215 1121.69 123.772C1121.3 123.319 1120.82 122.959 1120.24 122.693C1119.68 122.428 1119.01 122.295 1118.23 122.295C1117.39 122.295 1116.67 122.472 1116.06 122.826C1115.46 123.169 1114.97 123.645 1114.58 124.254C1114.19 124.852 1113.91 125.549 1113.72 126.346C1113.54 127.132 1113.45 127.973 1113.45 128.869ZM1142.13 120.037H1144.92V137.618C1144.92 139.201 1144.6 140.551 1143.95 141.669C1143.31 142.787 1142.42 143.633 1141.26 144.209C1140.12 144.796 1138.81 145.089 1137.31 145.089C1136.69 145.089 1135.96 144.989 1135.12 144.79C1134.29 144.602 1133.47 144.275 1132.66 143.811C1131.87 143.357 1131.2 142.743 1130.66 141.968L1132.27 140.142C1133.02 141.049 1133.8 141.68 1134.62 142.034C1135.45 142.388 1136.27 142.565 1137.08 142.565C1138.05 142.565 1138.9 142.383 1139.6 142.018C1140.31 141.652 1140.86 141.11 1141.25 140.391C1141.65 139.682 1141.85 138.808 1141.85 137.768V123.988L1142.13 120.037ZM1129.76 129.218V128.869C1129.76 127.497 1129.92 126.252 1130.24 125.134C1130.57 124.005 1131.04 123.036 1131.65 122.229C1132.27 121.421 1133.02 120.801 1133.89 120.369C1134.77 119.926 1135.75 119.705 1136.85 119.705C1137.98 119.705 1138.96 119.904 1139.8 120.303C1140.66 120.69 1141.37 121.26 1141.96 122.013C1142.56 122.754 1143.03 123.651 1143.37 124.702C1143.72 125.754 1143.95 126.943 1144.09 128.271V129.799C1143.96 131.116 1143.73 132.3 1143.37 133.352C1143.03 134.403 1142.56 135.299 1141.96 136.041C1141.37 136.783 1140.66 137.353 1139.8 137.751C1138.95 138.138 1137.95 138.332 1136.81 138.332C1135.74 138.332 1134.77 138.105 1133.89 137.651C1133.03 137.198 1132.29 136.561 1131.67 135.742C1131.05 134.923 1130.57 133.96 1130.24 132.854C1129.92 131.736 1129.76 130.524 1129.76 129.218ZM1132.83 128.869V129.218C1132.83 130.114 1132.92 130.955 1133.1 131.741C1133.28 132.527 1133.57 133.219 1133.94 133.816C1134.33 134.414 1134.82 134.884 1135.42 135.228C1136.02 135.56 1136.73 135.726 1137.56 135.726C1138.58 135.726 1139.42 135.51 1140.09 135.078C1140.75 134.646 1141.28 134.076 1141.66 133.368C1142.06 132.66 1142.37 131.891 1142.59 131.061V127.06C1142.47 126.451 1142.28 125.864 1142.03 125.3C1141.78 124.724 1141.46 124.215 1141.06 123.772C1140.68 123.319 1140.2 122.959 1139.62 122.693C1139.04 122.428 1138.37 122.295 1137.6 122.295C1136.75 122.295 1136.03 122.472 1135.42 122.826C1134.82 123.169 1134.33 123.645 1133.94 124.254C1133.57 124.852 1133.28 125.549 1133.1 126.346C1132.92 127.132 1132.83 127.973 1132.83 128.869ZM1157.21 138.332C1155.95 138.332 1154.82 138.122 1153.8 137.701C1152.79 137.27 1151.93 136.666 1151.2 135.892C1150.48 135.117 1149.92 134.198 1149.54 133.136C1149.15 132.073 1148.95 130.911 1148.95 129.649V128.952C1148.95 127.491 1149.17 126.191 1149.6 125.051C1150.03 123.9 1150.62 122.926 1151.36 122.129C1152.1 121.332 1152.94 120.729 1153.89 120.319C1154.83 119.91 1155.8 119.705 1156.81 119.705C1158.09 119.705 1159.2 119.926 1160.13 120.369C1161.07 120.812 1161.84 121.432 1162.43 122.229C1163.03 123.014 1163.48 123.944 1163.76 125.018C1164.05 126.08 1164.19 127.242 1164.19 128.504V129.882H1150.78V127.375H1161.12V127.143C1161.08 126.346 1160.91 125.571 1160.63 124.818C1160.35 124.066 1159.91 123.446 1159.3 122.959C1158.69 122.472 1157.86 122.229 1156.81 122.229C1156.11 122.229 1155.47 122.378 1154.88 122.677C1154.29 122.965 1153.79 123.396 1153.37 123.972C1152.95 124.547 1152.62 125.25 1152.39 126.08C1152.16 126.91 1152.04 127.868 1152.04 128.952V129.649C1152.04 130.502 1152.16 131.304 1152.39 132.057C1152.63 132.798 1152.98 133.451 1153.44 134.016C1153.9 134.58 1154.46 135.023 1155.11 135.344C1155.78 135.665 1156.53 135.825 1157.37 135.825C1158.46 135.825 1159.37 135.604 1160.13 135.161C1160.88 134.718 1161.54 134.126 1162.1 133.385L1163.96 134.862C1163.57 135.449 1163.08 136.008 1162.48 136.539C1161.89 137.07 1161.15 137.502 1160.28 137.834C1159.41 138.166 1158.39 138.332 1157.21 138.332ZM1175.47 120.037V122.395H1165.76V120.037H1175.47ZM1169.05 115.671H1172.12V133.551C1172.12 134.16 1172.21 134.619 1172.4 134.929C1172.59 135.239 1172.83 135.443 1173.13 135.543C1173.43 135.643 1173.75 135.692 1174.09 135.692C1174.35 135.692 1174.61 135.67 1174.89 135.626C1175.18 135.571 1175.39 135.526 1175.54 135.493L1175.55 138C1175.31 138.077 1174.99 138.149 1174.59 138.216C1174.2 138.293 1173.73 138.332 1173.18 138.332C1172.43 138.332 1171.74 138.183 1171.1 137.884C1170.47 137.585 1169.97 137.087 1169.59 136.39C1169.23 135.681 1169.05 134.729 1169.05 133.534V115.671ZM1182.03 134.348V136.821C1182.03 137.828 1181.78 138.891 1181.27 140.009C1180.76 141.138 1180.05 142.078 1179.13 142.831L1177.38 141.619C1177.74 141.132 1178.04 140.634 1178.28 140.125C1178.52 139.627 1178.71 139.107 1178.83 138.564C1178.96 138.033 1179.03 137.469 1179.03 136.871V134.348H1182.03ZM1204.14 115.97L1196.14 138H1192.86L1202.08 113.828H1204.19L1204.14 115.97ZM1210.84 138L1202.83 115.97L1202.78 113.828H1204.88L1214.13 138H1210.84ZM1210.43 129.052V131.675H1196.85V129.052H1210.43ZM1220.15 123.872V138H1217.07V120.037H1219.98L1220.15 123.872ZM1219.41 128.338L1218.14 128.288C1218.15 127.06 1218.33 125.925 1218.68 124.885C1219.04 123.833 1219.54 122.92 1220.18 122.146C1220.82 121.371 1221.58 120.773 1222.47 120.353C1223.37 119.921 1224.36 119.705 1225.44 119.705C1226.33 119.705 1227.12 119.827 1227.83 120.07C1228.54 120.303 1229.14 120.679 1229.64 121.199C1230.15 121.719 1230.54 122.395 1230.8 123.225C1231.07 124.044 1231.2 125.045 1231.2 126.229V138H1228.11V126.196C1228.11 125.256 1227.98 124.503 1227.7 123.938C1227.42 123.363 1227.02 122.948 1226.49 122.693C1225.96 122.428 1225.3 122.295 1224.53 122.295C1223.76 122.295 1223.07 122.455 1222.44 122.776C1221.82 123.097 1221.28 123.54 1220.83 124.104C1220.38 124.669 1220.03 125.316 1219.78 126.047C1219.54 126.766 1219.41 127.53 1219.41 128.338ZM1246.63 134.929V125.682C1246.63 124.973 1246.48 124.359 1246.2 123.839C1245.92 123.308 1245.5 122.898 1244.94 122.61C1244.37 122.323 1243.67 122.179 1242.84 122.179C1242.07 122.179 1241.39 122.312 1240.8 122.577C1240.23 122.843 1239.77 123.191 1239.44 123.623C1239.12 124.055 1238.96 124.52 1238.96 125.018H1235.89C1235.89 124.376 1236.05 123.739 1236.39 123.108C1236.72 122.478 1237.19 121.908 1237.81 121.398C1238.44 120.878 1239.2 120.469 1240.07 120.17C1240.96 119.86 1241.94 119.705 1243.03 119.705C1244.33 119.705 1245.48 119.926 1246.48 120.369C1247.49 120.812 1248.27 121.481 1248.84 122.378C1249.41 123.263 1249.7 124.376 1249.7 125.715V134.082C1249.7 134.68 1249.75 135.316 1249.85 135.991C1249.96 136.666 1250.12 137.247 1250.33 137.734V138H1247.13C1246.97 137.646 1246.85 137.175 1246.76 136.589C1246.67 135.991 1246.63 135.438 1246.63 134.929ZM1247.16 127.109L1247.19 129.268H1244.09C1243.21 129.268 1242.43 129.34 1241.75 129.483C1241.06 129.616 1240.49 129.821 1240.02 130.098C1239.56 130.374 1239.2 130.723 1238.96 131.144C1238.72 131.553 1238.59 132.035 1238.59 132.588C1238.59 133.152 1238.72 133.667 1238.98 134.132C1239.23 134.597 1239.61 134.967 1240.12 135.244C1240.64 135.51 1241.28 135.643 1242.03 135.643C1242.97 135.643 1243.8 135.443 1244.52 135.045C1245.24 134.646 1245.81 134.16 1246.23 133.584C1246.66 133.008 1246.89 132.45 1246.93 131.907L1248.24 133.385C1248.16 133.85 1247.95 134.364 1247.61 134.929C1247.27 135.493 1246.81 136.035 1246.23 136.556C1245.67 137.065 1244.99 137.491 1244.2 137.834C1243.43 138.166 1242.56 138.332 1241.58 138.332C1240.36 138.332 1239.3 138.094 1238.38 137.618C1237.47 137.142 1236.76 136.506 1236.25 135.709C1235.75 134.901 1235.51 133.999 1235.51 133.003C1235.51 132.04 1235.69 131.193 1236.07 130.463C1236.45 129.721 1236.99 129.107 1237.7 128.62C1238.41 128.122 1239.26 127.746 1240.25 127.491C1241.25 127.237 1242.36 127.109 1243.59 127.109H1247.16ZM1258.35 113.828L1258.14 131.177H1255.37L1255.13 113.828H1258.35ZM1255.03 136.456C1255.03 135.958 1255.18 135.537 1255.48 135.194C1255.79 134.851 1256.25 134.68 1256.84 134.68C1257.43 134.68 1257.88 134.851 1258.19 135.194C1258.51 135.537 1258.67 135.958 1258.67 136.456C1258.67 136.932 1258.51 137.341 1258.19 137.685C1257.88 138.028 1257.43 138.199 1256.84 138.199C1256.25 138.199 1255.79 138.028 1255.48 137.685C1255.18 137.341 1255.03 136.932 1255.03 136.456Z" fill="#280C4E"/>
<defs>
<clipPath id="clip0_17_791">
<rect width="213" height="256.962" fill="white" transform="translate(176 6.83105)"/>
</clipPath>
</defs>
</svg>
