<svg viewBox="0 0 1920 265" fill="none" xmlns="http://www.w3.org/2000/svg" id="header">
<rect y="0.855469" width="1920" height="263.934" fill="#6F1AE3" fill-opacity="0.05"/>
<path d="M665.547 160.934V164H651.328V160.934H665.547ZM652.07 135.562V164H648.301V135.562H652.07ZM678.286 164.391C676.815 164.391 675.48 164.143 674.282 163.648C673.097 163.141 672.075 162.431 671.216 161.52C670.369 160.608 669.718 159.527 669.263 158.277C668.807 157.027 668.579 155.66 668.579 154.176V153.355C668.579 151.637 668.833 150.107 669.341 148.766C669.848 147.411 670.539 146.266 671.411 145.328C672.283 144.391 673.273 143.681 674.38 143.199C675.486 142.717 676.632 142.477 677.817 142.477C679.328 142.477 680.63 142.737 681.723 143.258C682.83 143.779 683.735 144.508 684.438 145.445C685.141 146.37 685.662 147.464 686.001 148.727C686.339 149.977 686.509 151.344 686.509 152.828V154.449H670.727V151.5H682.895V151.227C682.843 150.289 682.648 149.378 682.309 148.492C681.984 147.607 681.463 146.878 680.747 146.305C680.031 145.732 679.054 145.445 677.817 145.445C676.997 145.445 676.242 145.621 675.552 145.973C674.861 146.311 674.269 146.819 673.774 147.496C673.279 148.173 672.895 149 672.622 149.977C672.348 150.953 672.212 152.079 672.212 153.355V154.176C672.212 155.178 672.348 156.122 672.622 157.008C672.908 157.88 673.318 158.648 673.852 159.312C674.399 159.977 675.057 160.497 675.825 160.875C676.606 161.253 677.492 161.441 678.481 161.441C679.757 161.441 680.838 161.181 681.723 160.66C682.609 160.139 683.384 159.443 684.048 158.57L686.235 160.309C685.779 160.999 685.2 161.656 684.497 162.281C683.794 162.906 682.928 163.414 681.899 163.805C680.884 164.195 679.679 164.391 678.286 164.391ZM699.775 142.867V145.641H688.349V142.867H699.775ZM692.216 137.73H695.83V158.766C695.83 159.482 695.94 160.022 696.162 160.387C696.383 160.751 696.67 160.992 697.021 161.109C697.373 161.227 697.75 161.285 698.154 161.285C698.453 161.285 698.766 161.259 699.091 161.207C699.43 161.142 699.684 161.09 699.853 161.051L699.873 164C699.586 164.091 699.209 164.176 698.74 164.254C698.284 164.345 697.731 164.391 697.08 164.391C696.194 164.391 695.38 164.215 694.638 163.863C693.896 163.512 693.304 162.926 692.861 162.105C692.431 161.272 692.216 160.152 692.216 158.746V137.73ZM707.866 134V136.5C707.866 137.281 707.729 138.108 707.455 138.98C707.195 139.84 706.811 140.673 706.303 141.48C705.795 142.275 705.183 142.971 704.467 143.57L702.397 142.145C703.009 141.285 703.471 140.406 703.784 139.508C704.109 138.596 704.272 137.613 704.272 136.559V134H707.866ZM722.538 158.395C722.538 157.874 722.421 157.392 722.187 156.949C721.965 156.493 721.503 156.083 720.8 155.719C720.11 155.341 719.068 155.016 717.675 154.742C716.503 154.495 715.442 154.202 714.491 153.863C713.554 153.525 712.753 153.115 712.089 152.633C711.438 152.151 710.937 151.585 710.585 150.934C710.234 150.283 710.058 149.521 710.058 148.648C710.058 147.815 710.24 147.027 710.605 146.285C710.982 145.543 711.51 144.885 712.187 144.312C712.877 143.74 713.704 143.29 714.667 142.965C715.631 142.639 716.705 142.477 717.89 142.477C719.583 142.477 721.028 142.776 722.226 143.375C723.424 143.974 724.342 144.775 724.98 145.777C725.618 146.767 725.937 147.867 725.937 149.078H722.323C722.323 148.492 722.148 147.926 721.796 147.379C721.458 146.819 720.956 146.357 720.292 145.992C719.641 145.628 718.84 145.445 717.89 145.445C716.887 145.445 716.073 145.602 715.448 145.914C714.836 146.214 714.387 146.598 714.101 147.066C713.827 147.535 713.691 148.03 713.691 148.551C713.691 148.941 713.756 149.293 713.886 149.605C714.029 149.905 714.277 150.185 714.628 150.445C714.98 150.693 715.474 150.927 716.112 151.148C716.751 151.37 717.564 151.591 718.554 151.812C720.286 152.203 721.711 152.672 722.831 153.219C723.951 153.766 724.784 154.436 725.331 155.23C725.878 156.025 726.152 156.988 726.152 158.121C726.152 159.046 725.956 159.892 725.566 160.66C725.188 161.428 724.635 162.092 723.905 162.652C723.189 163.199 722.33 163.629 721.327 163.941C720.338 164.241 719.224 164.391 717.987 164.391C716.126 164.391 714.55 164.059 713.261 163.395C711.972 162.73 710.995 161.871 710.331 160.816C709.667 159.762 709.335 158.648 709.335 157.477H712.968C713.02 158.466 713.307 159.254 713.827 159.84C714.348 160.413 714.986 160.823 715.741 161.07C716.497 161.305 717.245 161.422 717.987 161.422C718.977 161.422 719.804 161.292 720.468 161.031C721.145 160.771 721.659 160.413 722.011 159.957C722.362 159.501 722.538 158.98 722.538 158.395ZM744.813 147.066V164H741.18V142.867H744.618L744.813 147.066ZM744.071 152.633L742.391 152.574C742.404 151.129 742.593 149.794 742.958 148.57C743.322 147.333 743.863 146.259 744.579 145.348C745.295 144.436 746.187 143.733 747.255 143.238C748.322 142.73 749.559 142.477 750.966 142.477C751.955 142.477 752.867 142.62 753.7 142.906C754.533 143.18 755.256 143.616 755.868 144.215C756.48 144.814 756.955 145.582 757.294 146.52C757.632 147.457 757.802 148.59 757.802 149.918V164H754.188V150.094C754.188 148.987 753.999 148.102 753.622 147.438C753.257 146.773 752.736 146.292 752.059 145.992C751.382 145.68 750.588 145.523 749.677 145.523C748.609 145.523 747.717 145.712 747.001 146.09C746.285 146.467 745.712 146.988 745.282 147.652C744.852 148.316 744.54 149.078 744.345 149.938C744.162 150.784 744.071 151.682 744.071 152.633ZM757.762 150.641L755.341 151.383C755.354 150.224 755.542 149.111 755.907 148.043C756.285 146.975 756.825 146.025 757.528 145.191C758.244 144.358 759.123 143.701 760.165 143.219C761.207 142.724 762.398 142.477 763.739 142.477C764.872 142.477 765.874 142.626 766.747 142.926C767.632 143.225 768.374 143.688 768.973 144.312C769.585 144.924 770.048 145.712 770.36 146.676C770.673 147.639 770.829 148.785 770.829 150.113V164H767.196V150.074C767.196 148.889 767.007 147.971 766.63 147.32C766.265 146.656 765.744 146.194 765.067 145.934C764.403 145.66 763.609 145.523 762.684 145.523C761.89 145.523 761.187 145.66 760.575 145.934C759.963 146.207 759.449 146.585 759.032 147.066C758.615 147.535 758.296 148.076 758.075 148.688C757.867 149.299 757.762 149.951 757.762 150.641ZM788.959 160.387V149.508C788.959 148.674 788.789 147.952 788.451 147.34C788.125 146.715 787.63 146.233 786.966 145.895C786.302 145.556 785.482 145.387 784.505 145.387C783.594 145.387 782.793 145.543 782.103 145.855C781.426 146.168 780.892 146.578 780.502 147.086C780.124 147.594 779.935 148.141 779.935 148.727H776.322C776.322 147.971 776.517 147.223 776.908 146.48C777.298 145.738 777.858 145.068 778.587 144.469C779.33 143.857 780.215 143.375 781.244 143.023C782.285 142.659 783.444 142.477 784.72 142.477C786.257 142.477 787.611 142.737 788.783 143.258C789.968 143.779 790.892 144.566 791.556 145.621C792.233 146.663 792.572 147.971 792.572 149.547V159.391C792.572 160.094 792.63 160.842 792.748 161.637C792.878 162.431 793.067 163.115 793.314 163.688V164H789.545C789.362 163.583 789.219 163.03 789.115 162.34C789.011 161.637 788.959 160.986 788.959 160.387ZM789.584 151.188L789.623 153.727H785.97C784.942 153.727 784.024 153.811 783.216 153.98C782.409 154.137 781.732 154.378 781.185 154.703C780.638 155.029 780.222 155.439 779.935 155.934C779.649 156.415 779.505 156.982 779.505 157.633C779.505 158.297 779.655 158.902 779.955 159.449C780.254 159.996 780.703 160.432 781.302 160.758C781.914 161.07 782.663 161.227 783.548 161.227C784.655 161.227 785.632 160.992 786.478 160.523C787.324 160.055 787.995 159.482 788.49 158.805C788.998 158.128 789.271 157.47 789.31 156.832L790.853 158.57C790.762 159.117 790.515 159.723 790.111 160.387C789.707 161.051 789.167 161.689 788.49 162.301C787.826 162.9 787.032 163.401 786.107 163.805C785.196 164.195 784.167 164.391 783.021 164.391C781.589 164.391 780.332 164.111 779.252 163.551C778.184 162.991 777.351 162.242 776.752 161.305C776.166 160.354 775.873 159.293 775.873 158.121C775.873 156.988 776.094 155.992 776.537 155.133C776.979 154.26 777.617 153.538 778.451 152.965C779.284 152.379 780.287 151.936 781.459 151.637C782.63 151.337 783.939 151.188 785.384 151.188H789.584ZM802.069 147.379V164H798.455V142.867H801.873L802.069 147.379ZM801.209 152.633L799.705 152.574C799.718 151.129 799.933 149.794 800.35 148.57C800.767 147.333 801.353 146.259 802.108 145.348C802.863 144.436 803.761 143.733 804.803 143.238C805.858 142.73 807.023 142.477 808.299 142.477C809.341 142.477 810.278 142.62 811.112 142.906C811.945 143.18 812.655 143.622 813.241 144.234C813.84 144.846 814.295 145.641 814.608 146.617C814.92 147.581 815.077 148.759 815.077 150.152V164H811.444V150.113C811.444 149.007 811.281 148.121 810.955 147.457C810.63 146.78 810.155 146.292 809.53 145.992C808.905 145.68 808.136 145.523 807.225 145.523C806.327 145.523 805.506 145.712 804.764 146.09C804.035 146.467 803.403 146.988 802.87 147.652C802.349 148.316 801.939 149.078 801.639 149.938C801.353 150.784 801.209 151.682 801.209 152.633ZM833.226 160.387V149.508C833.226 148.674 833.057 147.952 832.718 147.34C832.392 146.715 831.898 146.233 831.234 145.895C830.57 145.556 829.749 145.387 828.773 145.387C827.861 145.387 827.06 145.543 826.37 145.855C825.693 146.168 825.159 146.578 824.769 147.086C824.391 147.594 824.202 148.141 824.202 148.727H820.589C820.589 147.971 820.784 147.223 821.175 146.48C821.566 145.738 822.126 145.068 822.855 144.469C823.597 143.857 824.482 143.375 825.511 143.023C826.553 142.659 827.711 142.477 828.988 142.477C830.524 142.477 831.878 142.737 833.05 143.258C834.235 143.779 835.159 144.566 835.823 145.621C836.501 146.663 836.839 147.971 836.839 149.547V159.391C836.839 160.094 836.898 160.842 837.015 161.637C837.145 162.431 837.334 163.115 837.581 163.688V164H833.812C833.629 163.583 833.486 163.03 833.382 162.34C833.278 161.637 833.226 160.986 833.226 160.387ZM833.851 151.188L833.89 153.727H830.238C829.209 153.727 828.291 153.811 827.484 153.98C826.676 154.137 825.999 154.378 825.452 154.703C824.905 155.029 824.489 155.439 824.202 155.934C823.916 156.415 823.773 156.982 823.773 157.633C823.773 158.297 823.922 158.902 824.222 159.449C824.521 159.996 824.971 160.432 825.57 160.758C826.182 161.07 826.93 161.227 827.816 161.227C828.922 161.227 829.899 160.992 830.745 160.523C831.592 160.055 832.262 159.482 832.757 158.805C833.265 158.128 833.538 157.47 833.577 156.832L835.12 158.57C835.029 159.117 834.782 159.723 834.378 160.387C833.974 161.051 833.434 161.689 832.757 162.301C832.093 162.9 831.299 163.401 830.374 163.805C829.463 164.195 828.434 164.391 827.288 164.391C825.856 164.391 824.599 164.111 823.519 163.551C822.451 162.991 821.618 162.242 821.019 161.305C820.433 160.354 820.14 159.293 820.14 158.121C820.14 156.988 820.361 155.992 820.804 155.133C821.247 154.26 821.885 153.538 822.718 152.965C823.551 152.379 824.554 151.936 825.726 151.637C826.898 151.337 828.206 151.188 829.652 151.188H833.851ZM856.414 142.867H859.695V163.551C859.695 165.413 859.318 167.001 858.562 168.316C857.807 169.632 856.753 170.628 855.398 171.305C854.057 171.995 852.508 172.34 850.75 172.34C850.021 172.34 849.161 172.223 848.172 171.988C847.195 171.767 846.232 171.383 845.281 170.836C844.344 170.302 843.556 169.579 842.918 168.668L844.812 166.52C845.698 167.587 846.622 168.329 847.586 168.746C848.562 169.163 849.526 169.371 850.477 169.371C851.622 169.371 852.612 169.156 853.445 168.727C854.279 168.297 854.923 167.659 855.379 166.812C855.848 165.979 856.082 164.951 856.082 163.727V147.516L856.414 142.867ZM841.863 153.668V153.258C841.863 151.643 842.052 150.178 842.43 148.863C842.82 147.535 843.374 146.396 844.09 145.445C844.819 144.495 845.698 143.766 846.727 143.258C847.755 142.737 848.914 142.477 850.203 142.477C851.531 142.477 852.69 142.711 853.68 143.18C854.682 143.635 855.529 144.306 856.219 145.191C856.922 146.064 857.475 147.118 857.879 148.355C858.283 149.592 858.562 150.992 858.719 152.555V154.352C858.576 155.901 858.296 157.294 857.879 158.531C857.475 159.768 856.922 160.823 856.219 161.695C855.529 162.568 854.682 163.238 853.68 163.707C852.677 164.163 851.505 164.391 850.164 164.391C848.901 164.391 847.755 164.124 846.727 163.59C845.711 163.056 844.839 162.307 844.109 161.344C843.38 160.38 842.82 159.247 842.43 157.945C842.052 156.63 841.863 155.204 841.863 153.668ZM845.477 153.258V153.668C845.477 154.723 845.581 155.712 845.789 156.637C846.01 157.561 846.342 158.375 846.785 159.078C847.241 159.781 847.82 160.335 848.523 160.738C849.227 161.129 850.066 161.324 851.043 161.324C852.241 161.324 853.23 161.07 854.012 160.562C854.793 160.055 855.411 159.384 855.867 158.551C856.336 157.717 856.701 156.812 856.961 155.836V151.129C856.818 150.413 856.596 149.723 856.297 149.059C856.01 148.382 855.633 147.783 855.164 147.262C854.708 146.728 854.142 146.305 853.465 145.992C852.788 145.68 851.993 145.523 851.082 145.523C850.092 145.523 849.24 145.732 848.523 146.148C847.82 146.552 847.241 147.112 846.785 147.828C846.342 148.531 846.01 149.352 845.789 150.289C845.581 151.214 845.477 152.203 845.477 153.258ZM874.153 164.391C872.682 164.391 871.347 164.143 870.149 163.648C868.964 163.141 867.942 162.431 867.083 161.52C866.236 160.608 865.585 159.527 865.13 158.277C864.674 157.027 864.446 155.66 864.446 154.176V153.355C864.446 151.637 864.7 150.107 865.208 148.766C865.716 147.411 866.406 146.266 867.278 145.328C868.151 144.391 869.14 143.681 870.247 143.199C871.354 142.717 872.499 142.477 873.684 142.477C875.195 142.477 876.497 142.737 877.591 143.258C878.697 143.779 879.602 144.508 880.305 145.445C881.009 146.37 881.529 147.464 881.868 148.727C882.207 149.977 882.376 151.344 882.376 152.828V154.449H866.595V151.5H878.762V151.227C878.71 150.289 878.515 149.378 878.177 148.492C877.851 147.607 877.33 146.878 876.614 146.305C875.898 145.732 874.921 145.445 873.684 145.445C872.864 145.445 872.109 145.621 871.419 145.973C870.729 146.311 870.136 146.819 869.641 147.496C869.147 148.173 868.762 149 868.489 149.977C868.216 150.953 868.079 152.079 868.079 153.355V154.176C868.079 155.178 868.216 156.122 868.489 157.008C868.776 157.88 869.186 158.648 869.72 159.312C870.266 159.977 870.924 160.497 871.692 160.875C872.473 161.253 873.359 161.441 874.348 161.441C875.624 161.441 876.705 161.181 877.591 160.66C878.476 160.139 879.251 159.443 879.915 158.57L882.102 160.309C881.647 160.999 881.067 161.656 880.364 162.281C879.661 162.906 878.795 163.414 877.766 163.805C876.751 164.195 875.546 164.391 874.153 164.391ZM902.854 161.812L908.733 142.867H912.6L904.123 167.262C903.928 167.783 903.668 168.342 903.342 168.941C903.03 169.553 902.626 170.133 902.131 170.68C901.636 171.227 901.038 171.669 900.334 172.008C899.644 172.359 898.817 172.535 897.854 172.535C897.567 172.535 897.203 172.496 896.76 172.418C896.317 172.34 896.005 172.275 895.823 172.223L895.803 169.293C895.907 169.306 896.07 169.319 896.291 169.332C896.526 169.358 896.689 169.371 896.78 169.371C897.6 169.371 898.297 169.26 898.87 169.039C899.442 168.831 899.924 168.473 900.315 167.965C900.718 167.47 901.064 166.786 901.35 165.914L902.854 161.812ZM898.538 142.867L904.026 159.273L904.963 163.082L902.366 164.41L894.592 142.867H898.538ZM914.792 153.668V153.219C914.792 151.695 915.014 150.283 915.456 148.98C915.899 147.665 916.537 146.526 917.37 145.562C918.204 144.586 919.213 143.831 920.398 143.297C921.583 142.75 922.911 142.477 924.382 142.477C925.866 142.477 927.201 142.75 928.386 143.297C929.584 143.831 930.599 144.586 931.433 145.562C932.279 146.526 932.924 147.665 933.366 148.98C933.809 150.283 934.03 151.695 934.03 153.219V153.668C934.03 155.191 933.809 156.604 933.366 157.906C932.924 159.208 932.279 160.348 931.433 161.324C930.599 162.288 929.59 163.043 928.405 163.59C927.234 164.124 925.905 164.391 924.421 164.391C922.937 164.391 921.602 164.124 920.417 163.59C919.232 163.043 918.217 162.288 917.37 161.324C916.537 160.348 915.899 159.208 915.456 157.906C915.014 156.604 914.792 155.191 914.792 153.668ZM918.405 153.219V153.668C918.405 154.723 918.529 155.719 918.777 156.656C919.024 157.581 919.395 158.401 919.89 159.117C920.398 159.833 921.029 160.4 921.784 160.816C922.54 161.22 923.418 161.422 924.421 161.422C925.411 161.422 926.277 161.22 927.019 160.816C927.774 160.4 928.399 159.833 928.894 159.117C929.389 158.401 929.76 157.581 930.007 156.656C930.267 155.719 930.398 154.723 930.398 153.668V153.219C930.398 152.177 930.267 151.194 930.007 150.27C929.76 149.332 929.382 148.505 928.874 147.789C928.379 147.06 927.754 146.487 926.999 146.07C926.257 145.654 925.385 145.445 924.382 145.445C923.392 145.445 922.52 145.654 921.765 146.07C921.023 146.487 920.398 147.06 919.89 147.789C919.395 148.505 919.024 149.332 918.777 150.27C918.529 151.194 918.405 152.177 918.405 153.219ZM951.691 159.117V142.867H955.324V164H951.867L951.691 159.117ZM952.375 154.664L953.879 154.625C953.879 156.031 953.729 157.333 953.43 158.531C953.143 159.716 952.674 160.745 952.023 161.617C951.372 162.49 950.52 163.173 949.465 163.668C948.41 164.15 947.128 164.391 945.617 164.391C944.589 164.391 943.645 164.241 942.785 163.941C941.939 163.642 941.21 163.18 940.598 162.555C939.986 161.93 939.51 161.116 939.172 160.113C938.846 159.111 938.684 157.906 938.684 156.5V142.867H942.297V156.539C942.297 157.49 942.401 158.277 942.609 158.902C942.831 159.514 943.124 160.003 943.488 160.367C943.866 160.719 944.283 160.966 944.738 161.109C945.207 161.253 945.689 161.324 946.184 161.324C947.72 161.324 948.938 161.031 949.836 160.445C950.734 159.846 951.379 159.046 951.77 158.043C952.173 157.027 952.375 155.901 952.375 154.664ZM964.645 146.188V164H961.032V142.867H964.548L964.645 146.188ZM971.247 142.75L971.227 146.109C970.928 146.044 970.641 146.005 970.368 145.992C970.108 145.966 969.808 145.953 969.47 145.953C968.636 145.953 967.901 146.083 967.263 146.344C966.624 146.604 966.084 146.969 965.641 147.438C965.199 147.906 964.847 148.466 964.587 149.117C964.339 149.755 964.177 150.458 964.098 151.227L963.083 151.812C963.083 150.536 963.207 149.339 963.454 148.219C963.714 147.099 964.111 146.109 964.645 145.25C965.179 144.378 965.856 143.701 966.677 143.219C967.51 142.724 968.499 142.477 969.645 142.477C969.906 142.477 970.205 142.509 970.544 142.574C970.882 142.626 971.117 142.685 971.247 142.75ZM988.502 147.066V164H984.87V142.867H988.307L988.502 147.066ZM987.76 152.633L986.08 152.574C986.093 151.129 986.282 149.794 986.647 148.57C987.011 147.333 987.552 146.259 988.268 145.348C988.984 144.436 989.876 143.733 990.944 143.238C992.011 142.73 993.248 142.477 994.655 142.477C995.644 142.477 996.556 142.62 997.389 142.906C998.222 143.18 998.945 143.616 999.557 144.215C1000.17 144.814 1000.64 145.582 1000.98 146.52C1001.32 147.457 1001.49 148.59 1001.49 149.918V164H997.877V150.094C997.877 148.987 997.689 148.102 997.311 147.438C996.946 146.773 996.426 146.292 995.748 145.992C995.071 145.68 994.277 145.523 993.366 145.523C992.298 145.523 991.406 145.712 990.69 146.09C989.974 146.467 989.401 146.988 988.971 147.652C988.541 148.316 988.229 149.078 988.034 149.938C987.851 150.784 987.76 151.682 987.76 152.633ZM1001.45 150.641L999.03 151.383C999.043 150.224 999.232 149.111 999.596 148.043C999.974 146.975 1000.51 146.025 1001.22 145.191C1001.93 144.358 1002.81 143.701 1003.85 143.219C1004.9 142.724 1006.09 142.477 1007.43 142.477C1008.56 142.477 1009.56 142.626 1010.44 142.926C1011.32 143.225 1012.06 143.688 1012.66 144.312C1013.27 144.924 1013.74 145.712 1014.05 146.676C1014.36 147.639 1014.52 148.785 1014.52 150.113V164H1010.89V150.074C1010.89 148.889 1010.7 147.971 1010.32 147.32C1009.95 146.656 1009.43 146.194 1008.76 145.934C1008.09 145.66 1007.3 145.523 1006.37 145.523C1005.58 145.523 1004.88 145.66 1004.26 145.934C1003.65 146.207 1003.14 146.585 1002.72 147.066C1002.3 147.535 1001.99 148.076 1001.76 148.688C1001.56 149.299 1001.45 149.951 1001.45 150.641ZM1019.23 153.668V153.219C1019.23 151.695 1019.45 150.283 1019.89 148.98C1020.34 147.665 1020.97 146.526 1021.81 145.562C1022.64 144.586 1023.65 143.831 1024.84 143.297C1026.02 142.75 1027.35 142.477 1028.82 142.477C1030.3 142.477 1031.64 142.75 1032.82 143.297C1034.02 143.831 1035.04 144.586 1035.87 145.562C1036.72 146.526 1037.36 147.665 1037.8 148.98C1038.25 150.283 1038.47 151.695 1038.47 153.219V153.668C1038.47 155.191 1038.25 156.604 1037.8 157.906C1037.36 159.208 1036.72 160.348 1035.87 161.324C1035.04 162.288 1034.03 163.043 1032.84 163.59C1031.67 164.124 1030.34 164.391 1028.86 164.391C1027.37 164.391 1026.04 164.124 1024.85 163.59C1023.67 163.043 1022.65 162.288 1021.81 161.324C1020.97 160.348 1020.34 159.208 1019.89 157.906C1019.45 156.604 1019.23 155.191 1019.23 153.668ZM1022.84 153.219V153.668C1022.84 154.723 1022.97 155.719 1023.21 156.656C1023.46 157.581 1023.83 158.401 1024.33 159.117C1024.84 159.833 1025.47 160.4 1026.22 160.816C1026.98 161.22 1027.86 161.422 1028.86 161.422C1029.85 161.422 1030.71 161.22 1031.46 160.816C1032.21 160.4 1032.84 159.833 1033.33 159.117C1033.83 158.401 1034.2 157.581 1034.44 156.656C1034.7 155.719 1034.84 154.723 1034.84 153.668V153.219C1034.84 152.177 1034.7 151.194 1034.44 150.27C1034.2 149.332 1033.82 148.505 1033.31 147.789C1032.82 147.06 1032.19 146.487 1031.44 146.07C1030.69 145.654 1029.82 145.445 1028.82 145.445C1027.83 145.445 1026.96 145.654 1026.2 146.07C1025.46 146.487 1024.84 147.06 1024.33 147.789C1023.83 148.505 1023.46 149.332 1023.21 150.27C1022.97 151.194 1022.84 152.177 1022.84 153.219ZM1046.81 147.379V164H1043.2V142.867H1046.62L1046.81 147.379ZM1045.95 152.633L1044.45 152.574C1044.46 151.129 1044.68 149.794 1045.09 148.57C1045.51 147.333 1046.1 146.259 1046.85 145.348C1047.61 144.436 1048.51 143.733 1049.55 143.238C1050.6 142.73 1051.77 142.477 1053.04 142.477C1054.08 142.477 1055.02 142.62 1055.86 142.906C1056.69 143.18 1057.4 143.622 1057.98 144.234C1058.58 144.846 1059.04 145.641 1059.35 146.617C1059.66 147.581 1059.82 148.759 1059.82 150.152V164H1056.19V150.113C1056.19 149.007 1056.02 148.121 1055.7 147.457C1055.37 146.78 1054.9 146.292 1054.27 145.992C1053.65 145.68 1052.88 145.523 1051.97 145.523C1051.07 145.523 1050.25 145.712 1049.51 146.09C1048.78 146.467 1048.15 146.988 1047.61 147.652C1047.09 148.316 1046.68 149.078 1046.38 149.938C1046.1 150.784 1045.95 151.682 1045.95 152.633ZM1074.36 142.867V145.641H1062.93V142.867H1074.36ZM1066.8 137.73H1070.41V158.766C1070.41 159.482 1070.52 160.022 1070.74 160.387C1070.96 160.751 1071.25 160.992 1071.6 161.109C1071.95 161.227 1072.33 161.285 1072.74 161.285C1073.03 161.285 1073.35 161.259 1073.67 161.207C1074.01 161.142 1074.27 161.09 1074.43 161.051L1074.45 164C1074.17 164.091 1073.79 164.176 1073.32 164.254C1072.87 164.345 1072.31 164.391 1071.66 164.391C1070.78 164.391 1069.96 164.215 1069.22 163.863C1068.48 163.512 1067.88 162.926 1067.44 162.105C1067.01 161.272 1066.8 160.152 1066.8 158.746V137.73ZM1082.41 134V164H1078.79V134H1082.41ZM1081.55 152.633L1080.04 152.574C1080.06 151.129 1080.27 149.794 1080.69 148.57C1081.11 147.333 1081.69 146.259 1082.45 145.348C1083.2 144.436 1084.1 143.733 1085.14 143.238C1086.2 142.73 1087.36 142.477 1088.64 142.477C1089.68 142.477 1090.62 142.62 1091.45 142.906C1092.28 143.18 1092.99 143.622 1093.58 144.234C1094.18 144.846 1094.63 145.641 1094.95 146.617C1095.26 147.581 1095.42 148.759 1095.42 150.152V164H1091.78V150.113C1091.78 149.007 1091.62 148.121 1091.29 147.457C1090.97 146.78 1090.49 146.292 1089.87 145.992C1089.24 145.68 1088.48 145.523 1087.56 145.523C1086.67 145.523 1085.85 145.712 1085.1 146.09C1084.37 146.467 1083.74 146.988 1083.21 147.652C1082.69 148.316 1082.28 149.078 1081.98 149.938C1081.69 150.784 1081.55 151.682 1081.55 152.633ZM1104.95 134V164H1101.32V134H1104.95ZM1116.89 161.812L1122.77 142.867H1126.64L1118.16 167.262C1117.96 167.783 1117.7 168.342 1117.38 168.941C1117.07 169.553 1116.66 170.133 1116.17 170.68C1115.67 171.227 1115.07 171.669 1114.37 172.008C1113.68 172.359 1112.85 172.535 1111.89 172.535C1111.6 172.535 1111.24 172.496 1110.8 172.418C1110.35 172.34 1110.04 172.275 1109.86 172.223L1109.84 169.293C1109.94 169.306 1110.11 169.319 1110.33 169.332C1110.56 169.358 1110.72 169.371 1110.82 169.371C1111.64 169.371 1112.33 169.26 1112.91 169.039C1113.48 168.831 1113.96 168.473 1114.35 167.965C1114.75 167.47 1115.1 166.786 1115.39 165.914L1116.89 161.812ZM1112.57 142.867L1118.06 159.273L1119 163.082L1116.4 164.41L1108.63 142.867H1112.57ZM1140.2 134H1143.83V159.898L1143.52 164H1140.2V134ZM1158.11 153.258V153.668C1158.11 155.204 1157.93 156.63 1157.56 157.945C1157.2 159.247 1156.66 160.38 1155.96 161.344C1155.26 162.307 1154.4 163.056 1153.38 163.59C1152.37 164.124 1151.2 164.391 1149.89 164.391C1148.55 164.391 1147.37 164.163 1146.35 163.707C1145.35 163.238 1144.5 162.568 1143.81 161.695C1143.12 160.823 1142.57 159.768 1142.15 158.531C1141.75 157.294 1141.47 155.901 1141.31 154.352V152.555C1141.47 150.992 1141.75 149.592 1142.15 148.355C1142.57 147.118 1143.12 146.064 1143.81 145.191C1144.5 144.306 1145.35 143.635 1146.35 143.18C1147.35 142.711 1148.52 142.477 1149.85 142.477C1151.18 142.477 1152.35 142.737 1153.38 143.258C1154.41 143.766 1155.27 144.495 1155.96 145.445C1156.66 146.396 1157.2 147.535 1157.56 148.863C1157.93 150.178 1158.11 151.643 1158.11 153.258ZM1154.48 153.668V153.258C1154.48 152.203 1154.38 151.214 1154.18 150.289C1153.99 149.352 1153.68 148.531 1153.25 147.828C1152.82 147.112 1152.25 146.552 1151.55 146.148C1150.84 145.732 1149.98 145.523 1148.95 145.523C1148.04 145.523 1147.24 145.68 1146.57 145.992C1145.9 146.305 1145.34 146.728 1144.87 147.262C1144.4 147.783 1144.02 148.382 1143.72 149.059C1143.43 149.723 1143.21 150.413 1143.07 151.129V155.836C1143.28 156.747 1143.62 157.626 1144.09 158.473C1144.57 159.306 1145.21 159.99 1146 160.523C1146.81 161.057 1147.8 161.324 1148.99 161.324C1149.97 161.324 1150.8 161.129 1151.49 160.738C1152.19 160.335 1152.76 159.781 1153.19 159.078C1153.63 158.375 1153.96 157.561 1154.16 156.637C1154.37 155.712 1154.48 154.723 1154.48 153.668ZM1175.81 159.117V142.867H1179.44V164H1175.99L1175.81 159.117ZM1176.49 154.664L1178 154.625C1178 156.031 1177.85 157.333 1177.55 158.531C1177.26 159.716 1176.79 160.745 1176.14 161.617C1175.49 162.49 1174.64 163.173 1173.58 163.668C1172.53 164.15 1171.25 164.391 1169.74 164.391C1168.71 164.391 1167.76 164.241 1166.9 163.941C1166.06 163.642 1165.33 163.18 1164.72 162.555C1164.1 161.93 1163.63 161.116 1163.29 160.113C1162.97 159.111 1162.8 157.906 1162.8 156.5V142.867H1166.42V156.539C1166.42 157.49 1166.52 158.277 1166.73 158.902C1166.95 159.514 1167.24 160.003 1167.61 160.367C1167.98 160.719 1168.4 160.966 1168.86 161.109C1169.33 161.253 1169.81 161.324 1170.3 161.324C1171.84 161.324 1173.06 161.031 1173.95 160.445C1174.85 159.846 1175.5 159.046 1175.89 158.043C1176.29 157.027 1176.49 155.901 1176.49 154.664ZM1198.47 159.898V134H1202.1V164H1198.78L1198.47 159.898ZM1184.25 153.668V153.258C1184.25 151.643 1184.45 150.178 1184.84 148.863C1185.24 147.535 1185.81 146.396 1186.54 145.445C1187.28 144.495 1188.16 143.766 1189.17 143.258C1190.2 142.737 1191.35 142.477 1192.61 142.477C1193.94 142.477 1195.1 142.711 1196.09 143.18C1197.09 143.635 1197.94 144.306 1198.63 145.191C1199.33 146.064 1199.88 147.118 1200.29 148.355C1200.69 149.592 1200.97 150.992 1201.13 152.555V154.352C1200.98 155.901 1200.7 157.294 1200.29 158.531C1199.88 159.768 1199.33 160.823 1198.63 161.695C1197.94 162.568 1197.09 163.238 1196.09 163.707C1195.09 164.163 1193.91 164.391 1192.57 164.391C1191.34 164.391 1190.2 164.124 1189.17 163.59C1188.16 163.056 1187.28 162.307 1186.54 161.344C1185.81 160.38 1185.24 159.247 1184.84 157.945C1184.45 156.63 1184.25 155.204 1184.25 153.668ZM1187.89 153.258V153.668C1187.89 154.723 1187.99 155.712 1188.2 156.637C1188.42 157.561 1188.76 158.375 1189.21 159.078C1189.67 159.781 1190.25 160.335 1190.95 160.738C1191.65 161.129 1192.49 161.324 1193.47 161.324C1194.67 161.324 1195.65 161.07 1196.42 160.562C1197.2 160.055 1197.83 159.384 1198.3 158.551C1198.76 157.717 1199.13 156.812 1199.39 155.836V151.129C1199.23 150.413 1199 149.723 1198.71 149.059C1198.42 148.382 1198.04 147.783 1197.57 147.262C1197.12 146.728 1196.55 146.305 1195.87 145.992C1195.21 145.68 1194.42 145.523 1193.51 145.523C1192.52 145.523 1191.67 145.732 1190.95 146.148C1190.25 146.552 1189.67 147.112 1189.21 147.828C1188.76 148.531 1188.42 149.352 1188.2 150.289C1187.99 151.214 1187.89 152.203 1187.89 153.258ZM1221.62 142.867H1224.9V163.551C1224.9 165.413 1224.52 167.001 1223.77 168.316C1223.01 169.632 1221.96 170.628 1220.6 171.305C1219.26 171.995 1217.71 172.34 1215.96 172.34C1215.23 172.34 1214.37 172.223 1213.38 171.988C1212.4 171.767 1211.44 171.383 1210.49 170.836C1209.55 170.302 1208.76 169.579 1208.12 168.668L1210.02 166.52C1210.9 167.587 1211.83 168.329 1212.79 168.746C1213.77 169.163 1214.73 169.371 1215.68 169.371C1216.83 169.371 1217.82 169.156 1218.65 168.727C1219.48 168.297 1220.13 167.659 1220.59 166.812C1221.05 165.979 1221.29 164.951 1221.29 163.727V147.516L1221.62 142.867ZM1207.07 153.668V153.258C1207.07 151.643 1207.26 150.178 1207.64 148.863C1208.03 147.535 1208.58 146.396 1209.3 145.445C1210.03 144.495 1210.9 143.766 1211.93 143.258C1212.96 142.737 1214.12 142.477 1215.41 142.477C1216.74 142.477 1217.9 142.711 1218.89 143.18C1219.89 143.635 1220.73 144.306 1221.42 145.191C1222.13 146.064 1222.68 147.118 1223.09 148.355C1223.49 149.592 1223.77 150.992 1223.92 152.555V154.352C1223.78 155.901 1223.5 157.294 1223.09 158.531C1222.68 159.768 1222.13 160.823 1221.42 161.695C1220.73 162.568 1219.89 163.238 1218.89 163.707C1217.88 164.163 1216.71 164.391 1215.37 164.391C1214.11 164.391 1212.96 164.124 1211.93 163.59C1210.92 163.056 1210.04 162.307 1209.32 161.344C1208.59 160.38 1208.03 159.247 1207.64 157.945C1207.26 156.63 1207.07 155.204 1207.07 153.668ZM1210.68 153.258V153.668C1210.68 154.723 1210.79 155.712 1211 156.637C1211.22 157.561 1211.55 158.375 1211.99 159.078C1212.45 159.781 1213.03 160.335 1213.73 160.738C1214.43 161.129 1215.27 161.324 1216.25 161.324C1217.45 161.324 1218.44 161.07 1219.22 160.562C1220 160.055 1220.62 159.384 1221.07 158.551C1221.54 157.717 1221.91 156.812 1222.17 155.836V151.129C1222.02 150.413 1221.8 149.723 1221.5 149.059C1221.22 148.382 1220.84 147.783 1220.37 147.262C1219.91 146.728 1219.35 146.305 1218.67 145.992C1217.99 145.68 1217.2 145.523 1216.29 145.523C1215.3 145.523 1214.45 145.732 1213.73 146.148C1213.03 146.552 1212.45 147.112 1211.99 147.828C1211.55 148.531 1211.22 149.352 1211 150.289C1210.79 151.214 1210.68 152.203 1210.68 153.258ZM1239.36 164.391C1237.89 164.391 1236.55 164.143 1235.36 163.648C1234.17 163.141 1233.15 162.431 1232.29 161.52C1231.44 160.608 1230.79 159.527 1230.34 158.277C1229.88 157.027 1229.65 155.66 1229.65 154.176V153.355C1229.65 151.637 1229.91 150.107 1230.41 148.766C1230.92 147.411 1231.61 146.266 1232.48 145.328C1233.36 144.391 1234.35 143.681 1235.45 143.199C1236.56 142.717 1237.71 142.477 1238.89 142.477C1240.4 142.477 1241.7 142.737 1242.8 143.258C1243.9 143.779 1244.81 144.508 1245.51 145.445C1246.21 146.37 1246.74 147.464 1247.07 148.727C1247.41 149.977 1247.58 151.344 1247.58 152.828V154.449H1231.8V151.5H1243.97V151.227C1243.92 150.289 1243.72 149.378 1243.38 148.492C1243.06 147.607 1242.54 146.878 1241.82 146.305C1241.1 145.732 1240.13 145.445 1238.89 145.445C1238.07 145.445 1237.32 145.621 1236.62 145.973C1235.93 146.311 1235.34 146.819 1234.85 147.496C1234.35 148.173 1233.97 149 1233.7 149.977C1233.42 150.953 1233.29 152.079 1233.29 153.355V154.176C1233.29 155.178 1233.42 156.122 1233.7 157.008C1233.98 157.88 1234.39 158.648 1234.93 159.312C1235.47 159.977 1236.13 160.497 1236.9 160.875C1237.68 161.253 1238.57 161.441 1239.55 161.441C1240.83 161.441 1241.91 161.181 1242.8 160.66C1243.68 160.139 1244.46 159.443 1245.12 158.57L1247.31 160.309C1246.85 160.999 1246.27 161.656 1245.57 162.281C1244.87 162.906 1244 163.414 1242.97 163.805C1241.96 164.195 1240.75 164.391 1239.36 164.391ZM1260.85 142.867V145.641H1249.42V142.867H1260.85ZM1253.29 137.73H1256.9V158.766C1256.9 159.482 1257.01 160.022 1257.24 160.387C1257.46 160.751 1257.74 160.992 1258.09 161.109C1258.45 161.227 1258.82 161.285 1259.23 161.285C1259.53 161.285 1259.84 161.259 1260.16 161.207C1260.5 161.142 1260.76 161.09 1260.93 161.051L1260.95 164C1260.66 164.091 1260.28 164.176 1259.81 164.254C1259.36 164.345 1258.8 164.391 1258.15 164.391C1257.27 164.391 1256.45 164.215 1255.71 163.863C1254.97 163.512 1254.38 162.926 1253.93 162.105C1253.5 161.272 1253.29 160.152 1253.29 158.746V137.73ZM1269.58 135.562L1269.33 155.973H1266.07L1265.79 135.562H1269.58ZM1265.68 162.184C1265.68 161.598 1265.85 161.103 1266.2 160.699C1266.57 160.296 1267.1 160.094 1267.81 160.094C1268.5 160.094 1269.02 160.296 1269.39 160.699C1269.77 161.103 1269.95 161.598 1269.95 162.184C1269.95 162.743 1269.77 163.225 1269.39 163.629C1269.02 164.033 1268.5 164.234 1267.81 164.234C1267.1 164.234 1266.57 164.033 1266.2 163.629C1265.85 163.225 1265.68 162.743 1265.68 162.184Z" fill="#280C4E"/>
<g clip-path="url(#clip0_544_6251)">
<path d="M389 262.838V263.793H211.709V6.83105H212.674V262.838H389Z" fill="#E7DE0F"/>
<path d="M334.429 233.499C334.429 233.499 333.874 236.3 333.047 240.541C331.874 246.505 330.173 255.323 328.743 263.23H223.67C231.355 250.995 241.636 238.082 249.816 228.426L250.426 227.702C250.691 227.394 250.948 227.093 251.206 226.791C254.445 223.005 257.278 219.802 259.392 217.444C259.392 217.437 259.399 217.437 259.406 217.437C261.88 214.683 263.377 213.095 263.377 213.095L266.007 213.852L272.079 215.594L316.768 228.426L334.429 233.499Z" fill="#6F1AE3"/>
<path d="M339.429 236.671C339.226 246.413 288.204 232.447 280.524 225.517C272.843 218.581 257.83 230.337 250.395 225.817C242.961 221.292 263.811 204.138 263.811 204.138C263.646 200.056 262.382 196.092 260.152 192.653C256.492 187.226 260.152 190.243 262.358 187.713C264.559 185.184 265.206 165.041 265.206 165.041L260.21 150.01C257.841 142.892 257.777 135.221 260.025 128.064C262.273 120.908 266.721 114.622 272.751 110.083L285.153 94.3746L304.058 93.167L312.598 102.818L329.673 114.274L326.689 150.855C326.689 150.855 327.611 156.287 328.963 164.435C329.885 170 331.01 176.84 332.173 184.081C335.673 205.88 339.54 231.311 339.429 236.671Z" fill="#E7DE0F"/>
<path d="M356.317 224.753L351.943 205.126L362.934 201.092L366.812 222.005C367.808 222.777 368.567 223.808 369.003 224.983C369.439 226.158 369.535 227.43 369.28 228.656C369.025 229.882 368.429 231.013 367.559 231.922C366.69 232.832 365.581 233.483 364.357 233.804C363.133 234.124 361.844 234.101 360.633 233.736C359.422 233.371 358.338 232.68 357.502 231.74C356.667 230.799 356.114 229.647 355.904 228.413C355.695 227.179 355.838 225.911 356.317 224.753H356.317Z" fill="#F6BE4F"/>
<path d="M311.815 106.254L312.141 106.207C315.173 105.777 318.266 106.084 321.151 107.102C324.036 108.119 326.627 109.817 328.699 112.048C334.108 117.863 341.283 126.658 345.616 136.299C353.269 153.326 356.199 161.076 356.694 167.677C357.189 174.277 355.396 172.749 358.338 176.184C361.281 179.619 362.579 174.546 362.431 181.526C362.282 188.505 359.587 188.371 362.406 190.156C365.225 191.94 367.153 190.803 366.498 195.497C365.843 200.191 366.61 201.462 366.733 203.113C366.857 204.763 370.677 215.434 370.677 215.434C370.677 215.434 358.475 218.319 353.456 223.001C353.456 223.001 353.233 211.07 350.798 209.921C348.362 208.772 346.05 209.274 346.829 206.23C347.608 203.186 351.206 201.927 346.841 201.915C342.477 201.903 316.255 146.228 316.255 146.228L311.815 106.254Z" fill="#E7DE0F"/>
<path d="M313.162 74.7063C314.923 63.9795 307.555 53.8725 296.706 52.1318C285.857 50.391 275.635 57.6757 273.874 68.4026C272.114 79.1294 279.481 89.2363 290.33 90.9771C301.18 92.7178 311.402 85.4331 313.162 74.7063Z" fill="#F6BE4F"/>
<path d="M316.714 65.1607C318.078 69.6743 315.319 74.8364 311.739 71.2051C310.171 69.6148 310.239 67.6341 308.073 67.0615C306.324 66.5971 304.442 67.1278 302.846 67.9649C302.561 68.1126 301.286 64.4253 301.017 64.585C300.839 64.4676 301.661 68.2051 301.472 68.1032C300.044 67.3481 298.379 67.1628 296.818 67.5856C298.051 67.9941 299.124 68.7758 299.883 69.8199C299.349 70.1738 298.809 70.5285 298.255 70.8428C297.215 71.4362 287.73 70.9082 286.534 70.7901C280.795 70.2233 283.64 73.8394 281.272 79.0391C281.213 79.1691 281.153 79.301 281.092 79.4345L281.001 79.7675C281.151 78.3019 276.564 77.2097 276.83 79.2728C277.019 80.7376 278.301 83.9935 279.019 85.2867C272.139 80.6383 265.438 75.6595 271.146 64.9006C271.879 63.5202 271.259 61.7136 272.068 60.3677C272.877 59.0286 274.566 58.089 276.059 58.5996C275.933 56.2454 276.454 53.9012 277.567 51.8163C278.68 49.7315 280.344 47.9839 282.382 46.7593C284.419 45.5347 286.754 44.8789 289.139 44.8617C291.523 44.8444 293.868 45.4663 295.923 46.6613C297.833 47.7694 299.137 51.5537 301.178 50.6884C305.108 49.0229 306.832 50.6079 307.166 53.3302C307.336 54.7139 310.107 53.0574 311.317 53.7785C312.718 54.6152 312.958 56.3671 313.168 58.0528C311.918 58.1747 310.733 58.6622 309.765 59.4532C311.058 59.3227 312.36 59.5988 313.486 60.2422C313.507 60.2518 313.528 60.2632 313.547 60.2765C314.288 63.0624 314.212 63.68 316.714 65.1607Z" fill="#6F1AE3"/>
<path d="M389 99.1582V104.452H356.887C356.535 104.454 356.186 104.388 355.86 104.256C355.534 104.125 355.237 103.932 354.987 103.687C354.737 103.442 354.538 103.151 354.401 102.83C354.265 102.509 354.194 102.165 354.192 101.817C354.191 101.469 354.259 101.124 354.392 100.802C354.526 100.48 354.722 100.187 354.97 99.9398C355.218 99.6928 355.513 99.4967 355.838 99.3626C356.163 99.2284 356.511 99.159 356.863 99.1582H389Z" fill="#6F1AE3"/>
<path d="M206.332 144.82C203.642 141.042 201.409 136.965 199.678 132.673C199.626 132.544 199.535 132.433 199.419 132.354C199.302 132.276 199.164 132.234 199.023 132.234C198.882 132.234 198.744 132.276 198.628 132.354C198.511 132.433 198.421 132.544 198.369 132.673C196.639 136.965 194.406 141.042 191.716 144.82C191.627 144.941 191.579 145.088 191.58 145.239C191.581 145.389 191.631 145.535 191.723 145.655C191.815 145.775 191.943 145.863 192.089 145.905C192.235 145.948 192.391 145.943 192.533 145.891L198.093 143.902V177.927H199.953V143.902L205.515 145.891C205.657 145.943 205.813 145.948 205.959 145.906C206.105 145.863 206.233 145.775 206.325 145.655C206.417 145.535 206.467 145.389 206.468 145.239C206.469 145.088 206.421 144.942 206.332 144.82Z" fill="#E7DE0F"/>
<path d="M389 113.043V158.24H387.392V124.212L381.836 126.203C381.693 126.256 381.537 126.261 381.39 126.219C381.244 126.178 381.115 126.09 381.023 125.97C380.931 125.85 380.88 125.704 380.879 125.553C380.877 125.403 380.925 125.255 381.015 125.134C383.704 121.355 385.937 117.278 387.667 112.986C387.704 112.898 387.757 112.818 387.825 112.751C387.893 112.684 387.974 112.631 388.063 112.595C388.149 112.561 388.241 112.544 388.333 112.545C388.426 112.546 388.517 112.566 388.602 112.602C388.687 112.638 388.763 112.691 388.828 112.757C388.892 112.823 388.942 112.901 388.975 112.986C388.985 113.005 388.99 113.024 389 113.043Z" fill="#E7DE0F"/>
<path d="M320.279 227.869C313.841 222.896 311.051 209.448 297.826 205.789C290.113 203.655 283.609 206.171 272.704 210.389C258.332 215.948 252 222.252 243.494 227.869L320.279 227.869Z" fill="#280C4E"/>
<path d="M389 202.109V227.87H330.602C332.996 226.032 335.149 222.949 337.529 219.159C340.585 214.29 344.022 208.257 348.84 202.205C348.864 202.171 348.893 202.143 348.917 202.109H389Z" fill="#280C4E"/>
<path d="M389 177.251V199.351H351.215C354.338 195.752 357.84 192.493 361.662 189.628C362.69 188.85 363.742 188.103 364.819 187.389C368.27 185.111 371.923 183.147 375.734 181.523C380.015 179.701 384.455 178.271 389 177.251Z" fill="#280C4E"/>
<path d="M389 163.471V191.069C386.053 191.067 383.182 190.142 380.798 188.427C378.415 186.712 376.643 184.295 375.734 181.523C375.281 180.15 375.051 178.714 375.054 177.27C375.054 173.612 376.523 170.104 379.139 167.516C381.754 164.929 385.301 163.474 389 163.471Z" fill="#6F1AE3"/>
<path d="M233.95 122.847C233.951 123.194 233.883 123.538 233.75 123.859C233.617 124.181 233.421 124.473 233.173 124.719C232.926 124.966 232.632 125.162 232.308 125.296C231.984 125.43 231.636 125.499 231.285 125.5H176V120.207H231.265C231.975 120.206 232.657 120.483 233.16 120.978C233.663 121.473 233.947 122.145 233.95 122.847Z" fill="#6F1AE3"/>
<path d="M206.182 210.682L215.791 192.973L206.325 186.134L196.839 205.215C195.668 205.689 194.654 206.478 193.911 207.491C193.168 208.504 192.726 209.703 192.634 210.951C192.542 212.199 192.804 213.448 193.391 214.557C193.977 215.666 194.865 216.591 195.955 217.229C197.044 217.866 198.291 218.191 199.557 218.166C200.823 218.141 202.056 217.767 203.118 217.087C204.181 216.407 205.031 215.447 205.572 214.315C206.113 213.184 206.324 211.926 206.182 210.682V210.682Z" fill="#F6BE4F"/>
<path d="M285.804 113.005L285.503 112.873C282.704 111.643 279.643 111.106 276.587 111.31C273.531 111.513 270.571 112.449 267.963 114.038C261.157 118.179 251.833 124.712 245.01 132.824C232.961 147.15 223.818 149.439 221.525 155.657C219.233 161.876 221.378 160.888 217.602 163.402C213.825 165.915 213.972 160.685 212.194 167.441C210.416 174.197 213.046 174.793 209.843 175.752C206.64 176.711 205.096 175.098 204.435 179.791C203.774 184.484 202.687 185.501 202.114 187.056C201.54 188.611 194.928 197.851 194.928 197.851C194.928 197.851 205.876 203.91 209.417 209.765C209.417 209.765 212.914 198.345 215.574 197.895C218.234 197.444 220.321 198.548 220.409 195.41C220.497 192.272 217.382 190.092 221.585 191.255C225.787 192.417 256.804 159.241 256.804 159.241L285.804 113.005Z" fill="#E7DE0F"/>
<path d="M213.24 198.253C213.497 190.636 207.459 184.255 199.755 184.002C192.051 183.748 185.598 189.717 185.341 197.335C185.085 204.952 191.122 211.333 198.826 211.586C206.53 211.84 212.984 205.87 213.24 198.253Z" fill="#280C4E"/>
</g>
<rect x="838" y="182" width="1082" height="5" rx="2.5" fill="#6F1AE3"/>
<rect x="1522" y="93" width="398" height="5" rx="2.5" fill="#6F1AE3"/>
<rect x="1168" y="229" width="752" height="5" rx="2.5" fill="#E7DE0F"/>
<rect x="1388" y="135" width="532" height="5" rx="2.5" fill="#E7DE0F"/>
<defs>
<clipPath id="clip0_544_6251">
<rect width="213" height="256.962" fill="white" transform="translate(176 6.83105)"/>
</clipPath>
</defs>
</svg>
