<svg viewBox="0 0 375 106" fill="none" xmlns="http://www.w3.org/2000/svg" id="mobile-header">
<rect width="375" height="106" fill="#6F1AE3" fill-opacity="0.05"/>
<rect x="188" y="75" width="186" height="2" rx="1" fill="#6F1AE3"/>
<rect x="224" y="12" width="151" height="2" rx="1" fill="#6F1AE3"/>
<rect x="236" y="93" width="139" height="2" rx="1" fill="#E7DE0F"/>
<rect x="266" y="39" width="109" height="2" rx="1" fill="#E7DE0F"/>
<g clip-path="url(#clip0_45_892)">
<path d="M102 105.606V106H28.7529V0H29.1518V105.606H102Z" fill="#E7DE0F"/>
<path d="M79.4541 93.5033C79.4541 93.5033 79.2245 94.6588 78.8828 96.4085C78.3985 98.8686 77.6957 102.506 77.1049 105.768H33.6943C36.8695 100.721 41.117 95.394 44.4966 91.4108L44.7486 91.1123C44.8578 90.9852 44.9642 90.8608 45.0706 90.7364C46.4089 89.1746 47.5793 87.8534 48.4529 86.8804C48.4529 86.8776 48.4557 86.8776 48.4585 86.8776C49.4805 85.7415 50.0993 85.0864 50.0993 85.0864L51.1857 85.3988L53.6944 86.1175L72.1574 91.4109L79.4541 93.5033Z" fill="#6F1AE3"/>
<path d="M81.5202 94.8121C81.4364 98.8308 60.3569 93.0696 57.1837 90.2106C54.0105 87.3497 47.8076 92.1993 44.7362 90.3347C41.6647 88.4681 50.2788 81.3916 50.2788 81.3916C50.2105 79.7078 49.6886 78.0725 48.767 76.6542C47.2552 74.4154 48.767 75.6598 49.6785 74.6163C50.5879 73.5727 50.8552 65.2636 50.8552 65.2636L48.7909 59.0633C47.8125 56.1269 47.7858 52.9624 48.7145 50.0103C49.6433 47.0582 51.4812 44.4654 53.9726 42.5928L59.0963 36.1129L66.9067 35.6147L70.4349 39.596L77.4894 44.3216L76.2568 59.4118C76.2568 59.4118 76.6377 61.6525 77.1962 65.0136C77.5771 67.3094 78.0418 70.131 78.5225 73.1179C79.9685 82.1102 81.566 92.601 81.5202 94.8121Z" fill="#E7DE0F"/>
<path d="M88.4975 89.8957L86.6904 81.7996L91.2312 80.1353L92.8332 88.762C93.2449 89.0805 93.5584 89.506 93.7385 89.9906C93.9186 90.4753 93.9582 91 93.8529 91.5057C93.7475 92.0114 93.5013 92.478 93.142 92.8532C92.7827 93.2283 92.3246 93.4971 91.8191 93.6293C91.3135 93.7614 90.7807 93.7518 90.2804 93.6014C89.7801 93.451 89.3323 93.1658 88.9871 92.7779C88.642 92.39 88.4134 91.9148 88.3269 91.4056C88.2404 90.8964 88.2994 90.3735 88.4975 89.8957H88.4975Z" fill="#F6BE4F"/>
<path d="M70.1113 41.0131L70.246 40.994C71.4987 40.8165 72.7763 40.9431 73.9682 41.3629C75.1601 41.7827 76.2305 42.4829 77.0865 43.403C79.3214 45.8021 82.2857 49.43 84.076 53.407C87.2377 60.431 88.4483 63.6278 88.6527 66.3507C88.857 69.0736 88.1164 68.4433 89.3321 69.8602C90.5477 71.2771 91.084 69.1845 91.0227 72.0637C90.9615 74.9429 89.848 74.8875 91.0126 75.6236C92.1771 76.3598 92.9739 75.8909 92.7033 77.8271C92.4326 79.7634 92.7493 80.2878 92.8004 80.9685C92.8515 81.6493 94.4298 86.0512 94.4298 86.0512C94.4298 86.0512 89.3886 87.2413 87.3149 89.1726C87.3149 89.1726 87.2229 84.2512 86.2167 83.7773C85.2104 83.3033 84.2553 83.5101 84.5771 82.2545C84.8988 80.9989 86.3852 80.4795 84.5822 80.4745C82.7791 80.4695 71.9454 57.5028 71.9454 57.5028L70.1113 41.0131Z" fill="#E7DE0F"/>
<path d="M70.6678 27.9994C71.3952 23.5745 68.3512 19.4052 63.869 18.6871C59.3868 17.9691 55.1635 20.9741 54.4362 25.399C53.7088 29.824 56.7527 33.9932 61.235 34.7113C65.7172 35.4294 69.9404 32.4244 70.6678 27.9994Z" fill="#F6BE4F"/>
<path d="M72.1358 24.0617C72.6992 25.9237 71.5592 28.0531 70.0803 26.5551C69.4327 25.8991 69.4608 25.0821 68.5659 24.8458C67.8432 24.6543 67.0655 24.8732 66.4064 25.2185C66.2886 25.2794 65.7616 23.7584 65.6504 23.8243C65.577 23.7758 65.9168 25.3176 65.8384 25.2756C65.2488 24.9641 64.5606 24.8876 63.9156 25.062C64.4253 25.2306 64.8684 25.553 65.1823 25.9837C64.9617 26.1297 64.7382 26.276 64.5096 26.4057C64.08 26.6505 60.1612 26.4327 59.667 26.3839C57.296 26.1501 58.4713 27.6418 57.493 29.7868C57.4685 29.8404 57.4438 29.8948 57.4188 29.9499L57.381 30.0872C57.4431 29.4827 55.5481 29.0321 55.658 29.8832C55.736 30.4874 56.2657 31.8305 56.5624 32.364C53.7197 30.4464 50.9514 28.3926 53.3097 23.9545C53.6123 23.385 53.3561 22.6398 53.6903 22.0846C54.0249 21.5322 54.7224 21.1446 55.3395 21.3552C55.2872 20.384 55.5025 19.417 55.9624 18.557C56.4223 17.697 57.1097 16.9761 57.9515 16.4709C58.7933 15.9658 59.7581 15.6952 60.7432 15.6881C61.7283 15.681 62.6969 15.9376 63.5461 16.4305C64.3352 16.8876 64.8737 18.4487 65.7171 18.0917C67.3406 17.4047 68.053 18.0585 68.1911 19.1815C68.2614 19.7523 69.406 19.069 69.9058 19.3664C70.4848 19.7116 70.584 20.4343 70.6708 21.1297C70.1544 21.1799 69.6649 21.381 69.2649 21.7073C69.7992 21.6535 70.3371 21.7674 70.8021 22.0328C70.8109 22.0367 70.8193 22.0415 70.8272 22.0469C71.1333 23.1962 71.102 23.4509 72.1358 24.0617Z" fill="#6F1AE3"/>
<path d="M102 38.0859V40.2695H88.7325C88.5871 40.2705 88.4429 40.2431 88.3082 40.189C88.1735 40.1349 88.0509 40.0551 87.9475 39.9541C87.8441 39.8531 87.7618 39.733 87.7055 39.6007C87.6491 39.4683 87.6198 39.3263 87.6192 39.1827C87.6185 39.0391 87.6465 38.8968 87.7017 38.7639C87.7568 38.6311 87.8379 38.5102 87.9404 38.4083C88.0429 38.3065 88.1647 38.2256 88.299 38.1702C88.4332 38.1149 88.5771 38.0863 88.7226 38.0859H102Z" fill="#6F1AE3"/>
<path d="M26.531 56.9223C25.4198 55.3636 24.4972 53.6819 23.7821 51.9114C23.7605 51.858 23.7232 51.8122 23.675 51.78C23.6268 51.7477 23.5699 51.7305 23.5116 51.7305C23.4534 51.7305 23.3965 51.7477 23.3482 51.78C23.3 51.8123 23.2627 51.8581 23.2412 51.9115C22.5264 53.682 21.6041 55.3637 20.4929 56.9222C20.4558 56.9723 20.436 57.0329 20.4365 57.0949C20.437 57.157 20.4577 57.2172 20.4956 57.2667C20.5334 57.3163 20.5864 57.3524 20.6467 57.3699C20.707 57.3874 20.7714 57.3853 20.8304 57.3639L23.1271 56.5436V70.5793H23.896V56.5436L26.1935 57.364C26.2525 57.3854 26.3169 57.3875 26.3772 57.37C26.4375 57.3525 26.4905 57.3163 26.5283 57.2668C26.5662 57.2173 26.5869 57.157 26.5874 57.095C26.5879 57.0329 26.5681 56.9724 26.531 56.9223V56.9223Z" fill="#E7DE0F"/>
<path d="M102 43.8135V62.4578H101.335V48.4209L99.0398 49.242C98.9808 49.2637 98.9163 49.2661 98.8558 49.2488C98.7954 49.2315 98.7422 49.1955 98.7041 49.1459C98.666 49.0964 98.6451 49.0361 98.6445 48.974C98.6439 48.9118 98.6636 48.8511 98.7007 48.8009C99.8118 47.2422 100.734 45.5604 101.449 43.7899C101.464 43.7536 101.486 43.7206 101.514 43.6929C101.543 43.6652 101.576 43.6432 101.613 43.6284C101.648 43.6144 101.686 43.6074 101.724 43.6079C101.762 43.6085 101.8 43.6165 101.835 43.6315C101.87 43.6465 101.902 43.6682 101.928 43.6954C101.955 43.7226 101.976 43.7547 101.99 43.7899C101.994 43.7977 101.996 43.8056 102 43.8135Z" fill="#E7DE0F"/>
<path d="M73.6082 91.1807C70.9483 89.129 69.7955 83.5816 64.3319 82.0725C61.1453 81.1923 58.458 82.23 53.9525 83.97C48.0151 86.2629 45.3988 88.8637 41.8848 91.1806L73.6082 91.1807Z" fill="#280C4E"/>
<path d="M102 80.5547V91.1813H77.873C78.8623 90.4232 79.7518 89.1513 80.7351 87.5879C81.9976 85.5795 83.4177 83.0907 85.4082 80.5941C85.4181 80.5803 85.4301 80.5685 85.4401 80.5547H102Z" fill="#280C4E"/>
<path d="M102 70.3003V79.4167H86.3896C87.6801 77.9323 89.1269 76.5878 90.7057 75.4059C91.1305 75.0849 91.5653 74.7771 92.0101 74.4824C93.4358 73.5425 94.9452 72.7325 96.5196 72.0625C98.2881 71.3111 100.123 70.7212 102 70.3003V70.3003Z" fill="#280C4E"/>
<path d="M102 64.6162V76.0008C100.783 76 99.5963 75.6185 98.6117 74.9111C97.6271 74.2037 96.8947 73.2066 96.5195 72.0629C96.3322 71.4965 96.2373 70.9043 96.2383 70.3085C96.2385 68.7996 96.8455 67.3524 97.9259 66.2851C99.0064 65.2177 100.472 64.6175 102 64.6162V64.6162Z" fill="#6F1AE3"/>
<path d="M37.9416 47.8579C37.9421 48.0011 37.9141 48.1431 37.859 48.2756C37.804 48.4082 37.7231 48.5287 37.6208 48.6304C37.5186 48.7321 37.3971 48.8128 37.2632 48.8681C37.1294 48.9234 36.9858 48.9521 36.8407 48.9526H14V46.769H36.8327C37.1259 46.7684 37.4075 46.8828 37.6154 47.0869C37.8233 47.2911 37.9406 47.5684 37.9416 47.8579V47.8579Z" fill="#6F1AE3"/>
<path d="M26.4697 84.0914L30.4399 76.7861L26.5291 73.9648L22.61 81.8359C22.1261 82.0317 21.7072 82.357 21.4003 82.775C21.0933 83.193 20.9106 83.6873 20.8727 84.2022C20.8347 84.7171 20.943 85.2323 21.1853 85.6898C21.4276 86.1473 21.7944 86.5289 22.2445 86.7919C22.6945 87.0549 23.2099 87.1887 23.7328 87.1784C24.2556 87.168 24.7652 87.0139 25.2042 86.7333C25.6432 86.4528 25.9942 86.0568 26.2178 85.5901C26.4413 85.1234 26.5286 84.6044 26.4697 84.0914V84.0914Z" fill="#F6BE4F"/>
<path d="M59.3644 43.7982L59.24 43.7436C58.0835 43.2364 56.8192 43.0151 55.5566 43.0988C54.2939 43.1826 53.071 43.569 51.9936 44.2244C49.1818 45.9327 45.3295 48.6275 42.5108 51.9736C37.5324 57.8834 33.7551 58.8276 32.808 61.3929C31.861 63.9582 32.7473 63.5506 31.187 64.5875C29.6268 65.6244 29.6874 63.4667 28.9529 66.2538C28.2183 69.0408 29.305 69.2865 27.9815 69.6821C26.658 70.0777 26.0205 69.4124 25.7473 71.3484C25.4741 73.2843 25.0249 73.7039 24.7881 74.3452C24.5513 74.9865 21.8193 78.7985 21.8193 78.7985C21.8193 78.7985 26.3424 81.2977 27.8056 83.7131C27.8056 83.7131 29.2505 79.0021 30.3494 78.8163C31.4483 78.6305 32.3104 79.086 32.3468 77.7914C32.3832 76.4968 31.0961 75.5977 32.8325 76.0772C34.5688 76.5567 47.3834 62.8713 47.3834 62.8713L59.3644 43.7982Z" fill="#E7DE0F"/>
<path d="M29.3861 78.9638C29.4921 75.8216 26.9978 73.1895 23.8149 73.0849C20.632 72.9803 17.9658 75.4427 17.8599 78.5849C17.7539 81.7272 20.2482 84.3592 23.4311 84.4639C26.614 84.5685 29.2801 82.106 29.3861 78.9638Z" fill="#280C4E"/>
</g>
<path d="M114.219 63.7734V65H108.531V63.7734H114.219ZM108.828 53.625V65H107.32V53.625H108.828ZM119.314 65.1562C118.726 65.1562 118.192 65.0573 117.713 64.8594C117.239 64.6562 116.83 64.3724 116.486 64.0078C116.148 63.6432 115.887 63.2109 115.705 62.7109C115.523 62.2109 115.432 61.6641 115.432 61.0703V60.7422C115.432 60.0547 115.533 59.4427 115.736 58.9062C115.939 58.3646 116.215 57.9062 116.564 57.5312C116.913 57.1562 117.309 56.8724 117.752 56.6797C118.195 56.487 118.653 56.3906 119.127 56.3906C119.731 56.3906 120.252 56.4948 120.689 56.7031C121.132 56.9115 121.494 57.2031 121.775 57.5781C122.057 57.9479 122.265 58.3854 122.4 58.8906C122.536 59.3906 122.603 59.9375 122.603 60.5312V61.1797H116.291V60H121.158V59.8906C121.137 59.5156 121.059 59.151 120.924 58.7969C120.794 58.4427 120.585 58.151 120.299 57.9219C120.012 57.6927 119.622 57.5781 119.127 57.5781C118.799 57.5781 118.497 57.6484 118.221 57.7891C117.945 57.9245 117.708 58.1276 117.51 58.3984C117.312 58.6693 117.158 59 117.049 59.3906C116.939 59.7812 116.885 60.2318 116.885 60.7422V61.0703C116.885 61.4714 116.939 61.849 117.049 62.2031C117.163 62.5521 117.327 62.8594 117.541 63.125C117.76 63.3906 118.023 63.599 118.33 63.75C118.642 63.901 118.997 63.9766 119.392 63.9766C119.903 63.9766 120.335 63.8724 120.689 63.6641C121.044 63.4557 121.353 63.1771 121.619 62.8281L122.494 63.5234C122.312 63.7995 122.08 64.0625 121.799 64.3125C121.517 64.5625 121.171 64.7656 120.76 64.9219C120.353 65.0781 119.872 65.1562 119.314 65.1562ZM127.91 56.5469V57.6562H123.34V56.5469H127.91ZM124.887 54.4922H126.332V62.9062C126.332 63.1927 126.376 63.4089 126.465 63.5547C126.553 63.7005 126.668 63.7969 126.808 63.8438C126.949 63.8906 127.1 63.9141 127.262 63.9141C127.381 63.9141 127.506 63.9036 127.637 63.8828C127.772 63.8568 127.874 63.8359 127.941 63.8203L127.949 65C127.834 65.0365 127.683 65.0703 127.496 65.1016C127.314 65.138 127.092 65.1562 126.832 65.1562C126.478 65.1562 126.152 65.0859 125.855 64.9453C125.558 64.8047 125.321 64.5703 125.144 64.2422C124.972 63.9089 124.887 63.4609 124.887 62.8984V54.4922ZM131.146 53V54C131.146 54.3125 131.092 54.6432 130.982 54.9922C130.878 55.3359 130.724 55.6693 130.521 55.9922C130.318 56.3099 130.073 56.5885 129.787 56.8281L128.959 56.2578C129.204 55.9141 129.388 55.5625 129.513 55.2031C129.644 54.8385 129.709 54.4453 129.709 54.0234V53H131.146ZM137.015 62.7578C137.015 62.5495 136.968 62.3568 136.875 62.1797C136.786 61.9974 136.601 61.8333 136.32 61.6875C136.044 61.5365 135.627 61.4062 135.07 61.2969C134.601 61.1979 134.177 61.0807 133.797 60.9453C133.422 60.8099 133.101 60.6458 132.836 60.4531C132.575 60.2604 132.375 60.0339 132.234 59.7734C132.093 59.513 132.023 59.2083 132.023 58.8594C132.023 58.526 132.096 58.2109 132.242 57.9141C132.393 57.6172 132.604 57.3542 132.875 57.125C133.151 56.8958 133.481 56.7161 133.867 56.5859C134.252 56.4557 134.682 56.3906 135.156 56.3906C135.833 56.3906 136.411 56.5104 136.89 56.75C137.369 56.9896 137.737 57.3099 137.992 57.7109C138.247 58.1068 138.375 58.5469 138.375 59.0312H136.929C136.929 58.7969 136.859 58.5703 136.718 58.3516C136.583 58.1276 136.382 57.9427 136.117 57.7969C135.856 57.651 135.536 57.5781 135.156 57.5781C134.755 57.5781 134.429 57.6406 134.179 57.7656C133.935 57.8854 133.755 58.0391 133.64 58.2266C133.531 58.4141 133.476 58.612 133.476 58.8203C133.476 58.9766 133.502 59.1172 133.554 59.2422C133.612 59.362 133.711 59.474 133.851 59.5781C133.992 59.6771 134.19 59.7708 134.445 59.8594C134.7 59.9479 135.026 60.0365 135.422 60.125C136.114 60.2812 136.685 60.4688 137.132 60.6875C137.58 60.9062 137.914 61.1745 138.132 61.4922C138.351 61.8099 138.461 62.1953 138.461 62.6484C138.461 63.0182 138.382 63.3568 138.226 63.6641C138.075 63.9714 137.854 64.237 137.562 64.4609C137.276 64.6797 136.932 64.8516 136.531 64.9766C136.135 65.0964 135.69 65.1562 135.195 65.1562C134.45 65.1562 133.82 65.0234 133.304 64.7578C132.789 64.4922 132.398 64.1484 132.132 63.7266C131.867 63.3047 131.734 62.8594 131.734 62.3906H133.187C133.208 62.7865 133.323 63.1016 133.531 63.3359C133.739 63.5651 133.994 63.7292 134.297 63.8281C134.599 63.9219 134.898 63.9688 135.195 63.9688C135.591 63.9688 135.922 63.9167 136.187 63.8125C136.458 63.7083 136.664 63.5651 136.804 63.3828C136.945 63.2005 137.015 62.9922 137.015 62.7578ZM145.925 58.2266V65H144.472V56.5469H145.847L145.925 58.2266ZM145.628 60.4531L144.957 60.4297C144.962 59.8516 145.037 59.3177 145.183 58.8281C145.329 58.3333 145.545 57.9036 145.832 57.5391C146.118 57.1745 146.475 56.8932 146.902 56.6953C147.329 56.4922 147.824 56.3906 148.386 56.3906C148.782 56.3906 149.147 56.4479 149.48 56.5625C149.813 56.6719 150.102 56.8464 150.347 57.0859C150.592 57.3255 150.782 57.6328 150.917 58.0078C151.053 58.3828 151.121 58.8359 151.121 59.3672V65H149.675V59.4375C149.675 58.9948 149.6 58.6406 149.449 58.375C149.303 58.1094 149.095 57.9167 148.824 57.7969C148.553 57.6719 148.235 57.6094 147.871 57.6094C147.444 57.6094 147.087 57.6849 146.8 57.8359C146.514 57.987 146.285 58.1953 146.113 58.4609C145.941 58.7266 145.816 59.0312 145.738 59.375C145.665 59.7135 145.628 60.0729 145.628 60.4531ZM151.105 59.6562L150.136 59.9531C150.141 59.4896 150.217 59.0443 150.363 58.6172C150.514 58.1901 150.73 57.8099 151.011 57.4766C151.298 57.1432 151.649 56.8802 152.066 56.6875C152.483 56.4896 152.959 56.3906 153.496 56.3906C153.949 56.3906 154.35 56.4505 154.699 56.5703C155.053 56.6901 155.35 56.875 155.589 57.125C155.834 57.3698 156.019 57.6849 156.144 58.0703C156.269 58.4557 156.332 58.9141 156.332 59.4453V65H154.878V59.4297C154.878 58.9557 154.803 58.5885 154.652 58.3281C154.506 58.0625 154.298 57.8776 154.027 57.7734C153.761 57.6641 153.444 57.6094 153.074 57.6094C152.756 57.6094 152.475 57.6641 152.23 57.7734C151.985 57.8828 151.779 58.0339 151.613 58.2266C151.446 58.4141 151.319 58.6302 151.23 58.875C151.147 59.1198 151.105 59.3802 151.105 59.6562ZM163.583 63.5547V59.2031C163.583 58.8698 163.516 58.5807 163.38 58.3359C163.25 58.0859 163.052 57.8932 162.787 57.7578C162.521 57.6224 162.193 57.5547 161.802 57.5547C161.438 57.5547 161.117 57.6172 160.841 57.7422C160.57 57.8672 160.357 58.0312 160.201 58.2344C160.05 58.4375 159.974 58.6562 159.974 58.8906H158.529C158.529 58.5885 158.607 58.2891 158.763 57.9922C158.919 57.6953 159.143 57.4271 159.435 57.1875C159.732 56.9427 160.086 56.75 160.498 56.6094C160.914 56.4635 161.378 56.3906 161.888 56.3906C162.503 56.3906 163.044 56.4948 163.513 56.7031C163.987 56.9115 164.357 57.2266 164.623 57.6484C164.893 58.0651 165.029 58.5885 165.029 59.2188V63.1562C165.029 63.4375 165.052 63.737 165.099 64.0547C165.151 64.3724 165.227 64.6458 165.326 64.875V65H163.818C163.745 64.8333 163.688 64.612 163.646 64.3359C163.604 64.0547 163.583 63.7943 163.583 63.5547ZM163.833 59.875L163.849 60.8906H162.388C161.977 60.8906 161.609 60.9245 161.287 60.9922C160.964 61.0547 160.693 61.151 160.474 61.2812C160.255 61.4115 160.089 61.5755 159.974 61.7734C159.859 61.9661 159.802 62.1927 159.802 62.4531C159.802 62.7188 159.862 62.9609 159.982 63.1797C160.102 63.3984 160.281 63.5729 160.521 63.7031C160.766 63.8281 161.065 63.8906 161.419 63.8906C161.862 63.8906 162.253 63.7969 162.591 63.6094C162.93 63.4219 163.198 63.1927 163.396 62.9219C163.599 62.651 163.708 62.388 163.724 62.1328L164.341 62.8281C164.305 63.0469 164.206 63.2891 164.044 63.5547C163.883 63.8203 163.667 64.0755 163.396 64.3203C163.13 64.5599 162.813 64.7604 162.443 64.9219C162.078 65.0781 161.667 65.1562 161.208 65.1562C160.636 65.1562 160.133 65.0443 159.701 64.8203C159.274 64.5964 158.94 64.2969 158.701 63.9219C158.466 63.5417 158.349 63.1172 158.349 62.6484C158.349 62.1953 158.438 61.7969 158.615 61.4531C158.792 61.1042 159.047 60.8151 159.38 60.5859C159.714 60.3516 160.115 60.1745 160.583 60.0547C161.052 59.9349 161.576 59.875 162.154 59.875H163.833ZM168.827 58.3516V65H167.382V56.5469H168.749L168.827 58.3516ZM168.484 60.4531L167.882 60.4297C167.887 59.8516 167.973 59.3177 168.14 58.8281C168.307 58.3333 168.541 57.9036 168.843 57.5391C169.145 57.1745 169.505 56.8932 169.921 56.6953C170.343 56.4922 170.809 56.3906 171.32 56.3906C171.736 56.3906 172.111 56.4479 172.445 56.5625C172.778 56.6719 173.062 56.849 173.296 57.0938C173.536 57.3385 173.718 57.6562 173.843 58.0469C173.968 58.4323 174.031 58.9036 174.031 59.4609V65H172.577V59.4453C172.577 59.0026 172.512 58.6484 172.382 58.3828C172.252 58.112 172.062 57.9167 171.812 57.7969C171.562 57.6719 171.255 57.6094 170.89 57.6094C170.531 57.6094 170.202 57.6849 169.906 57.8359C169.614 57.987 169.361 58.1953 169.148 58.4609C168.939 58.7266 168.775 59.0312 168.656 59.375C168.541 59.7135 168.484 60.0729 168.484 60.4531ZM181.29 63.5547V59.2031C181.29 58.8698 181.223 58.5807 181.087 58.3359C180.957 58.0859 180.759 57.8932 180.493 57.7578C180.228 57.6224 179.9 57.5547 179.509 57.5547C179.144 57.5547 178.824 57.6172 178.548 57.7422C178.277 57.8672 178.064 58.0312 177.908 58.2344C177.756 58.4375 177.681 58.6562 177.681 58.8906H176.236C176.236 58.5885 176.314 58.2891 176.47 57.9922C176.626 57.6953 176.85 57.4271 177.142 57.1875C177.439 56.9427 177.793 56.75 178.204 56.6094C178.621 56.4635 179.085 56.3906 179.595 56.3906C180.21 56.3906 180.751 56.4948 181.22 56.7031C181.694 56.9115 182.064 57.2266 182.329 57.6484C182.6 58.0651 182.736 58.5885 182.736 59.2188V63.1562C182.736 63.4375 182.759 63.737 182.806 64.0547C182.858 64.3724 182.934 64.6458 183.033 64.875V65H181.525C181.452 64.8333 181.394 64.612 181.353 64.3359C181.311 64.0547 181.29 63.7943 181.29 63.5547ZM181.54 59.875L181.556 60.8906H180.095C179.684 60.8906 179.316 60.9245 178.993 60.9922C178.671 61.0547 178.4 61.151 178.181 61.2812C177.962 61.4115 177.796 61.5755 177.681 61.7734C177.566 61.9661 177.509 62.1927 177.509 62.4531C177.509 62.7188 177.569 62.9609 177.689 63.1797C177.809 63.3984 177.988 63.5729 178.228 63.7031C178.473 63.8281 178.772 63.8906 179.126 63.8906C179.569 63.8906 179.96 63.7969 180.298 63.6094C180.637 63.4219 180.905 63.1927 181.103 62.9219C181.306 62.651 181.415 62.388 181.431 62.1328L182.048 62.8281C182.012 63.0469 181.913 63.2891 181.751 63.5547C181.59 63.8203 181.374 64.0755 181.103 64.3203C180.837 64.5599 180.519 64.7604 180.15 64.9219C179.785 65.0781 179.374 65.1562 178.915 65.1562C178.342 65.1562 177.84 65.0443 177.408 64.8203C176.98 64.5964 176.647 64.2969 176.408 63.9219C176.173 63.5417 176.056 63.1172 176.056 62.6484C176.056 62.1953 176.144 61.7969 176.322 61.4531C176.499 61.1042 176.754 60.8151 177.087 60.5859C177.421 60.3516 177.822 60.1745 178.29 60.0547C178.759 59.9349 179.283 59.875 179.861 59.875H181.54ZM190.566 56.5469H191.878V64.8203C191.878 65.5651 191.727 66.2005 191.425 66.7266C191.123 67.2526 190.701 67.651 190.159 67.9219C189.623 68.1979 189.003 68.3359 188.3 68.3359C188.008 68.3359 187.665 68.2891 187.269 68.1953C186.878 68.1068 186.493 67.9531 186.113 67.7344C185.738 67.5208 185.422 67.2318 185.167 66.8672L185.925 66.0078C186.279 66.4349 186.649 66.7318 187.034 66.8984C187.425 67.0651 187.81 67.1484 188.191 67.1484C188.649 67.1484 189.045 67.0625 189.378 66.8906C189.711 66.7188 189.969 66.4635 190.152 66.125C190.339 65.7917 190.433 65.3802 190.433 64.8906V58.4062L190.566 56.5469ZM184.745 60.8672V60.7031C184.745 60.0573 184.821 59.4714 184.972 58.9453C185.128 58.4141 185.349 57.9583 185.636 57.5781C185.928 57.1979 186.279 56.9062 186.691 56.7031C187.102 56.4948 187.566 56.3906 188.081 56.3906C188.613 56.3906 189.076 56.4844 189.472 56.6719C189.873 56.8542 190.211 57.1224 190.488 57.4766C190.769 57.8255 190.99 58.2474 191.152 58.7422C191.313 59.237 191.425 59.7969 191.488 60.4219V61.1406C191.43 61.7604 191.318 62.3177 191.152 62.8125C190.99 63.3073 190.769 63.7292 190.488 64.0781C190.211 64.4271 189.873 64.6953 189.472 64.8828C189.071 65.0651 188.602 65.1562 188.066 65.1562C187.56 65.1562 187.102 65.0495 186.691 64.8359C186.284 64.6224 185.935 64.3229 185.644 63.9375C185.352 63.5521 185.128 63.099 184.972 62.5781C184.821 62.0521 184.745 61.4818 184.745 60.8672ZM186.191 60.7031V60.8672C186.191 61.2891 186.232 61.6849 186.316 62.0547C186.404 62.4245 186.537 62.75 186.714 63.0312C186.896 63.3125 187.128 63.5339 187.409 63.6953C187.691 63.8516 188.027 63.9297 188.417 63.9297C188.896 63.9297 189.292 63.8281 189.605 63.625C189.917 63.4219 190.165 63.1536 190.347 62.8203C190.534 62.487 190.68 62.125 190.784 61.7344V59.8516C190.727 59.5651 190.639 59.2891 190.519 59.0234C190.404 58.7526 190.253 58.513 190.066 58.3047C189.883 58.0911 189.657 57.9219 189.386 57.7969C189.115 57.6719 188.797 57.6094 188.433 57.6094C188.037 57.6094 187.696 57.6927 187.409 57.8594C187.128 58.0208 186.896 58.2448 186.714 58.5312C186.537 58.8125 186.404 59.1406 186.316 59.5156C186.232 59.8854 186.191 60.2812 186.191 60.7031ZM197.661 65.1562C197.073 65.1562 196.539 65.0573 196.06 64.8594C195.586 64.6562 195.177 64.3724 194.833 64.0078C194.495 63.6432 194.234 63.2109 194.052 62.7109C193.87 62.2109 193.778 61.6641 193.778 61.0703V60.7422C193.778 60.0547 193.88 59.4427 194.083 58.9062C194.286 58.3646 194.562 57.9062 194.911 57.5312C195.26 57.1562 195.656 56.8724 196.099 56.6797C196.541 56.487 197 56.3906 197.474 56.3906C198.078 56.3906 198.599 56.4948 199.036 56.7031C199.479 56.9115 199.841 57.2031 200.122 57.5781C200.403 57.9479 200.612 58.3854 200.747 58.8906C200.883 59.3906 200.95 59.9375 200.95 60.5312V61.1797H194.638V60H199.505V59.8906C199.484 59.5156 199.406 59.151 199.271 58.7969C199.14 58.4427 198.932 58.151 198.646 57.9219C198.359 57.6927 197.969 57.5781 197.474 57.5781C197.146 57.5781 196.844 57.6484 196.567 57.7891C196.291 57.9245 196.054 58.1276 195.857 58.3984C195.659 58.6693 195.505 59 195.396 59.3906C195.286 59.7812 195.232 60.2318 195.232 60.7422V61.0703C195.232 61.4714 195.286 61.849 195.396 62.2031C195.51 62.5521 195.674 62.8594 195.888 63.125C196.107 63.3906 196.37 63.599 196.677 63.75C196.989 63.901 197.344 63.9766 197.739 63.9766C198.25 63.9766 198.682 63.8724 199.036 63.6641C199.39 63.4557 199.7 63.1771 199.966 62.8281L200.841 63.5234C200.659 63.7995 200.427 64.0625 200.146 64.3125C199.864 64.5625 199.518 64.7656 199.107 64.9219C198.7 65.0781 198.219 65.1562 197.661 65.1562ZM209.142 64.125L211.493 56.5469H213.04L209.649 66.3047C209.571 66.513 209.467 66.737 209.337 66.9766C209.212 67.2214 209.05 67.4531 208.853 67.6719C208.655 67.8906 208.415 68.0677 208.134 68.2031C207.858 68.3438 207.527 68.4141 207.142 68.4141C207.027 68.4141 206.881 68.3984 206.704 68.3672C206.527 68.3359 206.402 68.3099 206.329 68.2891L206.321 67.1172C206.363 67.1224 206.428 67.1276 206.517 67.1328C206.61 67.1432 206.675 67.1484 206.712 67.1484C207.04 67.1484 207.319 67.1042 207.548 67.0156C207.777 66.9323 207.97 66.7891 208.126 66.5859C208.287 66.388 208.425 66.1146 208.54 65.7656L209.142 64.125ZM207.415 56.5469L209.61 63.1094L209.985 64.6328L208.946 65.1641L205.837 56.5469H207.415ZM213.917 60.8672V60.6875C213.917 60.0781 214.005 59.513 214.183 58.9922C214.36 58.4661 214.615 58.0104 214.948 57.625C215.281 57.2344 215.685 56.9323 216.159 56.7188C216.633 56.5 217.164 56.3906 217.753 56.3906C218.347 56.3906 218.88 56.5 219.354 56.7188C219.834 56.9323 220.24 57.2344 220.573 57.625C220.912 58.0104 221.169 58.4661 221.347 58.9922C221.524 59.513 221.612 60.0781 221.612 60.6875V60.8672C221.612 61.4766 221.524 62.0417 221.347 62.5625C221.169 63.0833 220.912 63.5391 220.573 63.9297C220.24 64.3151 219.836 64.6172 219.362 64.8359C218.893 65.0495 218.362 65.1562 217.768 65.1562C217.175 65.1562 216.641 65.0495 216.167 64.8359C215.693 64.6172 215.287 64.3151 214.948 63.9297C214.615 63.5391 214.36 63.0833 214.183 62.5625C214.005 62.0417 213.917 61.4766 213.917 60.8672ZM215.362 60.6875V60.8672C215.362 61.2891 215.412 61.6875 215.511 62.0625C215.61 62.4323 215.758 62.7604 215.956 63.0469C216.159 63.3333 216.412 63.5599 216.714 63.7266C217.016 63.888 217.367 63.9688 217.768 63.9688C218.164 63.9688 218.511 63.888 218.808 63.7266C219.11 63.5599 219.36 63.3333 219.558 63.0469C219.755 62.7604 219.904 62.4323 220.003 62.0625C220.107 61.6875 220.159 61.2891 220.159 60.8672V60.6875C220.159 60.2708 220.107 59.8776 220.003 59.5078C219.904 59.1328 219.753 58.8021 219.55 58.5156C219.352 58.224 219.102 57.9948 218.8 57.8281C218.503 57.6615 218.154 57.5781 217.753 57.5781C217.357 57.5781 217.008 57.6615 216.706 57.8281C216.409 57.9948 216.159 58.224 215.956 58.5156C215.758 58.8021 215.61 59.1328 215.511 59.5078C215.412 59.8776 215.362 60.2708 215.362 60.6875ZM228.677 63.0469V56.5469H230.13V65H228.747L228.677 63.0469ZM228.95 61.2656L229.552 61.25C229.552 61.8125 229.492 62.3333 229.372 62.8125C229.257 63.2865 229.07 63.6979 228.809 64.0469C228.549 64.3958 228.208 64.6693 227.786 64.8672C227.364 65.0599 226.851 65.1562 226.247 65.1562C225.835 65.1562 225.458 65.0964 225.114 64.9766C224.776 64.8568 224.484 64.6719 224.239 64.4219C223.994 64.1719 223.804 63.8464 223.669 63.4453C223.539 63.0443 223.473 62.5625 223.473 62V56.5469H224.919V62.0156C224.919 62.3958 224.96 62.7109 225.044 62.9609C225.132 63.2057 225.249 63.401 225.395 63.5469C225.546 63.6875 225.713 63.7865 225.895 63.8438C226.083 63.901 226.276 63.9297 226.473 63.9297C227.088 63.9297 227.575 63.8125 227.934 63.5781C228.294 63.3385 228.552 63.0182 228.708 62.6172C228.869 62.2109 228.95 61.7604 228.95 61.2656ZM233.858 57.875V65H232.413V56.5469H233.819L233.858 57.875ZM236.499 56.5L236.491 57.8438C236.371 57.8177 236.257 57.8021 236.147 57.7969C236.043 57.7865 235.923 57.7812 235.788 57.7812C235.454 57.7812 235.16 57.8333 234.905 57.9375C234.65 58.0417 234.434 58.1875 234.257 58.375C234.079 58.5625 233.939 58.7865 233.835 59.0469C233.736 59.3021 233.671 59.5833 233.639 59.8906L233.233 60.125C233.233 59.6146 233.283 59.1354 233.382 58.6875C233.486 58.2396 233.645 57.8438 233.858 57.5C234.072 57.151 234.342 56.8802 234.671 56.6875C235.004 56.4896 235.4 56.3906 235.858 56.3906C235.962 56.3906 236.082 56.4036 236.217 56.4297C236.353 56.4505 236.447 56.474 236.499 56.5ZM243.401 58.2266V65H241.948V56.5469H243.323L243.401 58.2266ZM243.104 60.4531L242.432 60.4297C242.437 59.8516 242.513 59.3177 242.659 58.8281C242.805 58.3333 243.021 57.9036 243.307 57.5391C243.594 57.1745 243.95 56.8932 244.378 56.6953C244.805 56.4922 245.299 56.3906 245.862 56.3906C246.258 56.3906 246.622 56.4479 246.956 56.5625C247.289 56.6719 247.578 56.8464 247.823 57.0859C248.068 57.3255 248.258 57.6328 248.393 58.0078C248.529 58.3828 248.596 58.8359 248.596 59.3672V65H247.151V59.4375C247.151 58.9948 247.075 58.6406 246.924 58.375C246.779 58.1094 246.57 57.9167 246.299 57.7969C246.029 57.6719 245.711 57.6094 245.346 57.6094C244.919 57.6094 244.562 57.6849 244.276 57.8359C243.989 57.987 243.76 58.1953 243.588 58.4609C243.417 58.7266 243.292 59.0312 243.213 59.375C243.141 59.7135 243.104 60.0729 243.104 60.4531ZM248.581 59.6562L247.612 59.9531C247.617 59.4896 247.693 59.0443 247.838 58.6172C247.989 58.1901 248.206 57.8099 248.487 57.4766C248.773 57.1432 249.125 56.8802 249.542 56.6875C249.958 56.4896 250.435 56.3906 250.971 56.3906C251.424 56.3906 251.825 56.4505 252.174 56.5703C252.529 56.6901 252.825 56.875 253.065 57.125C253.31 57.3698 253.495 57.6849 253.62 58.0703C253.745 58.4557 253.807 58.9141 253.807 59.4453V65H252.354V59.4297C252.354 58.9557 252.279 58.5885 252.128 58.3281C251.982 58.0625 251.773 57.8776 251.503 57.7734C251.237 57.6641 250.919 57.6094 250.549 57.6094C250.232 57.6094 249.95 57.6641 249.706 57.7734C249.461 57.8828 249.255 58.0339 249.088 58.2266C248.922 58.4141 248.794 58.6302 248.706 58.875C248.622 59.1198 248.581 59.3802 248.581 59.6562ZM255.692 60.8672V60.6875C255.692 60.0781 255.78 59.513 255.958 58.9922C256.135 58.4661 256.39 58.0104 256.723 57.625C257.056 57.2344 257.46 56.9323 257.934 56.7188C258.408 56.5 258.939 56.3906 259.528 56.3906C260.122 56.3906 260.655 56.5 261.129 56.7188C261.609 56.9323 262.015 57.2344 262.348 57.625C262.687 58.0104 262.944 58.4661 263.122 58.9922C263.299 59.513 263.387 60.0781 263.387 60.6875V60.8672C263.387 61.4766 263.299 62.0417 263.122 62.5625C262.944 63.0833 262.687 63.5391 262.348 63.9297C262.015 64.3151 261.611 64.6172 261.137 64.8359C260.668 65.0495 260.137 65.1562 259.543 65.1562C258.95 65.1562 258.416 65.0495 257.942 64.8359C257.468 64.6172 257.062 64.3151 256.723 63.9297C256.39 63.5391 256.135 63.0833 255.958 62.5625C255.78 62.0417 255.692 61.4766 255.692 60.8672ZM257.137 60.6875V60.8672C257.137 61.2891 257.187 61.6875 257.286 62.0625C257.385 62.4323 257.533 62.7604 257.731 63.0469C257.934 63.3333 258.187 63.5599 258.489 63.7266C258.791 63.888 259.142 63.9688 259.543 63.9688C259.939 63.9688 260.286 63.888 260.583 63.7266C260.885 63.5599 261.135 63.3333 261.333 63.0469C261.53 62.7604 261.679 62.4323 261.778 62.0625C261.882 61.6875 261.934 61.2891 261.934 60.8672V60.6875C261.934 60.2708 261.882 59.8776 261.778 59.5078C261.679 59.1328 261.528 58.8021 261.325 58.5156C261.127 58.224 260.877 57.9948 260.575 57.8281C260.278 57.6615 259.929 57.5781 259.528 57.5781C259.132 57.5781 258.783 57.6615 258.481 57.8281C258.184 57.9948 257.934 58.224 257.731 58.5156C257.533 58.8021 257.385 59.1328 257.286 59.5078C257.187 59.8776 257.137 60.2708 257.137 60.6875ZM266.725 58.3516V65H265.28V56.5469H266.647L266.725 58.3516ZM266.381 60.4531L265.78 60.4297C265.785 59.8516 265.871 59.3177 266.038 58.8281C266.204 58.3333 266.439 57.9036 266.741 57.5391C267.043 57.1745 267.402 56.8932 267.819 56.6953C268.241 56.4922 268.707 56.3906 269.217 56.3906C269.634 56.3906 270.009 56.4479 270.342 56.5625C270.676 56.6719 270.959 56.849 271.194 57.0938C271.433 57.3385 271.616 57.6562 271.741 58.0469C271.866 58.4323 271.928 58.9036 271.928 59.4609V65H270.475V59.4453C270.475 59.0026 270.41 58.6484 270.28 58.3828C270.149 58.112 269.959 57.9167 269.709 57.7969C269.459 57.6719 269.152 57.6094 268.788 57.6094C268.428 57.6094 268.1 57.6849 267.803 57.8359C267.511 57.987 267.259 58.1953 267.045 58.4609C266.837 58.7266 266.673 59.0312 266.553 59.375C266.439 59.7135 266.381 60.0729 266.381 60.4531ZM277.742 56.5469V57.6562H273.172V56.5469H277.742ZM274.719 54.4922H276.164V62.9062C276.164 63.1927 276.209 63.4089 276.297 63.5547C276.386 63.7005 276.5 63.7969 276.641 63.8438C276.782 63.8906 276.933 63.9141 277.094 63.9141C277.214 63.9141 277.339 63.9036 277.469 63.8828C277.604 63.8568 277.706 63.8359 277.774 63.8203L277.782 65C277.667 65.0365 277.516 65.0703 277.328 65.1016C277.146 65.138 276.925 65.1562 276.664 65.1562C276.31 65.1562 275.985 65.0859 275.688 64.9453C275.391 64.8047 275.154 64.5703 274.977 64.2422C274.805 63.9089 274.719 63.4609 274.719 62.8984V54.4922ZM280.963 53V65H279.518V53H280.963ZM280.619 60.4531L280.018 60.4297C280.023 59.8516 280.109 59.3177 280.276 58.8281C280.442 58.3333 280.677 57.9036 280.979 57.5391C281.281 57.1745 281.64 56.8932 282.057 56.6953C282.479 56.4922 282.945 56.3906 283.455 56.3906C283.872 56.3906 284.247 56.4479 284.58 56.5625C284.914 56.6719 285.197 56.849 285.432 57.0938C285.671 57.3385 285.854 57.6562 285.979 58.0469C286.104 58.4323 286.166 58.9036 286.166 59.4609V65H284.713V59.4453C284.713 59.0026 284.648 58.6484 284.518 58.3828C284.388 58.112 284.197 57.9167 283.947 57.7969C283.697 57.6719 283.39 57.6094 283.026 57.6094C282.666 57.6094 282.338 57.6849 282.041 57.8359C281.75 57.987 281.497 58.1953 281.283 58.4609C281.075 58.7266 280.911 59.0312 280.791 59.375C280.677 59.7135 280.619 60.0729 280.619 60.4531ZM289.981 53V65H288.527V53H289.981ZM294.756 64.125L297.107 56.5469H298.654L295.264 66.3047C295.186 66.513 295.081 66.737 294.951 66.9766C294.826 67.2214 294.665 67.4531 294.467 67.6719C294.269 67.8906 294.029 68.0677 293.748 68.2031C293.472 68.3438 293.141 68.4141 292.756 68.4141C292.641 68.4141 292.496 68.3984 292.318 68.3672C292.141 68.3359 292.016 68.3099 291.943 68.2891L291.936 67.1172C291.977 67.1224 292.042 67.1276 292.131 67.1328C292.225 67.1432 292.29 67.1484 292.326 67.1484C292.654 67.1484 292.933 67.1042 293.162 67.0156C293.391 66.9323 293.584 66.7891 293.74 66.5859C293.902 66.388 294.04 66.1146 294.154 65.7656L294.756 64.125ZM293.029 56.5469L295.225 63.1094L295.6 64.6328L294.561 65.1641L291.451 56.5469H293.029ZM304.08 53H305.533V63.3594L305.408 65H304.08V53ZM311.244 60.7031V60.8672C311.244 61.4818 311.171 62.0521 311.025 62.5781C310.879 63.099 310.666 63.5521 310.385 63.9375C310.103 64.3229 309.76 64.6224 309.353 64.8359C308.947 65.0495 308.481 65.1562 307.955 65.1562C307.419 65.1562 306.947 65.0651 306.541 64.8828C306.14 64.6953 305.801 64.4271 305.525 64.0781C305.249 63.7292 305.028 63.3073 304.861 62.8125C304.7 62.3177 304.588 61.7604 304.525 61.1406V60.4219C304.588 59.7969 304.7 59.237 304.861 58.7422C305.028 58.2474 305.249 57.8255 305.525 57.4766C305.801 57.1224 306.14 56.8542 306.541 56.6719C306.942 56.4844 307.408 56.3906 307.939 56.3906C308.471 56.3906 308.942 56.4948 309.353 56.7031C309.765 56.9062 310.109 57.1979 310.385 57.5781C310.666 57.9583 310.879 58.4141 311.025 58.9453C311.171 59.4714 311.244 60.0573 311.244 60.7031ZM309.791 60.8672V60.7031C309.791 60.2812 309.752 59.8854 309.674 59.5156C309.596 59.1406 309.471 58.8125 309.299 58.5312C309.127 58.2448 308.9 58.0208 308.619 57.8594C308.338 57.6927 307.991 57.6094 307.58 57.6094C307.215 57.6094 306.898 57.6719 306.627 57.7969C306.361 57.9219 306.135 58.0911 305.947 58.3047C305.76 58.513 305.606 58.7526 305.486 59.0234C305.372 59.2891 305.286 59.5651 305.228 59.8516V61.7344C305.312 62.099 305.447 62.4505 305.635 62.7891C305.827 63.1224 306.083 63.3958 306.4 63.6094C306.723 63.8229 307.122 63.9297 307.596 63.9297C307.986 63.9297 308.32 63.8516 308.596 63.6953C308.877 63.5339 309.103 63.3125 309.275 63.0312C309.452 62.75 309.583 62.4245 309.666 62.0547C309.749 61.6849 309.791 61.2891 309.791 60.8672ZM318.324 63.0469V56.5469H319.777V65H318.394L318.324 63.0469ZM318.598 61.2656L319.199 61.25C319.199 61.8125 319.139 62.3333 319.019 62.8125C318.905 63.2865 318.717 63.6979 318.457 64.0469C318.196 64.3958 317.855 64.6693 317.433 64.8672C317.012 65.0599 316.499 65.1562 315.894 65.1562C315.483 65.1562 315.105 65.0964 314.762 64.9766C314.423 64.8568 314.131 64.6719 313.887 64.4219C313.642 64.1719 313.452 63.8464 313.316 63.4453C313.186 63.0443 313.121 62.5625 313.121 62V56.5469H314.566V62.0156C314.566 62.3958 314.608 62.7109 314.691 62.9609C314.78 63.2057 314.897 63.401 315.043 63.5469C315.194 63.6875 315.361 63.7865 315.543 63.8438C315.73 63.901 315.923 63.9297 316.121 63.9297C316.736 63.9297 317.223 63.8125 317.582 63.5781C317.941 63.3385 318.199 63.0182 318.355 62.6172C318.517 62.2109 318.598 61.7604 318.598 61.2656ZM327.388 63.3594V53H328.842V65H327.513L327.388 63.3594ZM321.701 60.8672V60.7031C321.701 60.0573 321.779 59.4714 321.935 58.9453C322.097 58.4141 322.323 57.9583 322.615 57.5781C322.912 57.1979 323.263 56.9062 323.67 56.7031C324.081 56.4948 324.539 56.3906 325.045 56.3906C325.576 56.3906 326.039 56.4844 326.435 56.6719C326.836 56.8542 327.175 57.1224 327.451 57.4766C327.732 57.8255 327.954 58.2474 328.115 58.7422C328.276 59.237 328.388 59.7969 328.451 60.4219V61.1406C328.394 61.7604 328.282 62.3177 328.115 62.8125C327.954 63.3073 327.732 63.7292 327.451 64.0781C327.175 64.4271 326.836 64.6953 326.435 64.8828C326.034 65.0651 325.566 65.1562 325.029 65.1562C324.534 65.1562 324.081 65.0495 323.67 64.8359C323.263 64.6224 322.912 64.3229 322.615 63.9375C322.323 63.5521 322.097 63.099 321.935 62.5781C321.779 62.0521 321.701 61.4818 321.701 60.8672ZM323.154 60.7031V60.8672C323.154 61.2891 323.196 61.6849 323.279 62.0547C323.368 62.4245 323.503 62.75 323.685 63.0312C323.868 63.3125 324.099 63.5339 324.381 63.6953C324.662 63.8516 324.998 63.9297 325.388 63.9297C325.868 63.9297 326.261 63.8281 326.568 63.625C326.881 63.4219 327.131 63.1536 327.318 62.8203C327.506 62.487 327.651 62.125 327.756 61.7344V59.8516C327.693 59.5651 327.602 59.2891 327.482 59.0234C327.368 58.7526 327.217 58.513 327.029 58.3047C326.847 58.0911 326.62 57.9219 326.349 57.7969C326.084 57.6719 325.769 57.6094 325.404 57.6094C325.008 57.6094 324.667 57.6927 324.381 57.8594C324.099 58.0208 323.868 58.2448 323.685 58.5312C323.503 58.8125 323.368 59.1406 323.279 59.5156C323.196 59.8854 323.154 60.2812 323.154 60.7031ZM336.648 56.5469H337.961V64.8203C337.961 65.5651 337.81 66.2005 337.508 66.7266C337.205 67.2526 336.784 67.651 336.242 67.9219C335.705 68.1979 335.086 68.3359 334.383 68.3359C334.091 68.3359 333.747 68.2891 333.351 68.1953C332.961 68.1068 332.575 67.9531 332.195 67.7344C331.82 67.5208 331.505 67.2318 331.25 66.8672L332.008 66.0078C332.362 66.4349 332.731 66.7318 333.117 66.8984C333.508 67.0651 333.893 67.1484 334.273 67.1484C334.731 67.1484 335.127 67.0625 335.461 66.8906C335.794 66.7188 336.052 66.4635 336.234 66.125C336.422 65.7917 336.515 65.3802 336.515 64.8906V58.4062L336.648 56.5469ZM330.828 60.8672V60.7031C330.828 60.0573 330.903 59.4714 331.054 58.9453C331.211 58.4141 331.432 57.9583 331.718 57.5781C332.01 57.1979 332.362 56.9062 332.773 56.7031C333.185 56.4948 333.648 56.3906 334.164 56.3906C334.695 56.3906 335.159 56.4844 335.554 56.6719C335.955 56.8542 336.294 57.1224 336.57 57.4766C336.851 57.8255 337.073 58.2474 337.234 58.7422C337.396 59.237 337.508 59.7969 337.57 60.4219V61.1406C337.513 61.7604 337.401 62.3177 337.234 62.8125C337.073 63.3073 336.851 63.7292 336.57 64.0781C336.294 64.4271 335.955 64.6953 335.554 64.8828C335.153 65.0651 334.685 65.1562 334.148 65.1562C333.643 65.1562 333.185 65.0495 332.773 64.8359C332.367 64.6224 332.018 64.3229 331.726 63.9375C331.435 63.5521 331.211 63.099 331.054 62.5781C330.903 62.0521 330.828 61.4818 330.828 60.8672ZM332.273 60.7031V60.8672C332.273 61.2891 332.315 61.6849 332.398 62.0547C332.487 62.4245 332.619 62.75 332.797 63.0312C332.979 63.3125 333.211 63.5339 333.492 63.6953C333.773 63.8516 334.109 63.9297 334.5 63.9297C334.979 63.9297 335.375 63.8281 335.687 63.625C336 63.4219 336.247 63.1536 336.429 62.8203C336.617 62.487 336.763 62.125 336.867 61.7344V59.8516C336.81 59.5651 336.721 59.2891 336.601 59.0234C336.487 58.7526 336.336 58.513 336.148 58.3047C335.966 58.0911 335.739 57.9219 335.468 57.7969C335.198 57.6719 334.88 57.6094 334.515 57.6094C334.119 57.6094 333.778 57.6927 333.492 57.8594C333.211 58.0208 332.979 58.2448 332.797 58.5312C332.619 58.8125 332.487 59.1406 332.398 59.5156C332.315 59.8854 332.273 60.2812 332.273 60.7031ZM343.744 65.1562C343.155 65.1562 342.621 65.0573 342.142 64.8594C341.668 64.6562 341.259 64.3724 340.916 64.0078C340.577 63.6432 340.317 63.2109 340.134 62.7109C339.952 62.2109 339.861 61.6641 339.861 61.0703V60.7422C339.861 60.0547 339.962 59.4427 340.166 58.9062C340.369 58.3646 340.645 57.9062 340.994 57.5312C341.343 57.1562 341.739 56.8724 342.181 56.6797C342.624 56.487 343.082 56.3906 343.556 56.3906C344.16 56.3906 344.681 56.4948 345.119 56.7031C345.561 56.9115 345.923 57.2031 346.205 57.5781C346.486 57.9479 346.694 58.3854 346.83 58.8906C346.965 59.3906 347.033 59.9375 347.033 60.5312V61.1797H340.72V60H345.587V59.8906C345.567 59.5156 345.489 59.151 345.353 58.7969C345.223 58.4427 345.015 58.151 344.728 57.9219C344.442 57.6927 344.051 57.5781 343.556 57.5781C343.228 57.5781 342.926 57.6484 342.65 57.7891C342.374 57.9245 342.137 58.1276 341.939 58.3984C341.741 58.6693 341.587 59 341.478 59.3906C341.369 59.7812 341.314 60.2318 341.314 60.7422V61.0703C341.314 61.4714 341.369 61.849 341.478 62.2031C341.593 62.5521 341.757 62.8594 341.97 63.125C342.189 63.3906 342.452 63.599 342.759 63.75C343.072 63.901 343.426 63.9766 343.822 63.9766C344.332 63.9766 344.765 63.8724 345.119 63.6641C345.473 63.4557 345.783 63.1771 346.048 62.8281L346.923 63.5234C346.741 63.7995 346.509 64.0625 346.228 64.3125C345.947 64.5625 345.601 64.7656 345.189 64.9219C344.783 65.0781 344.301 65.1562 343.744 65.1562ZM352.339 56.5469V57.6562H347.769V56.5469H352.339ZM349.316 54.4922H350.761V62.9062C350.761 63.1927 350.806 63.4089 350.894 63.5547C350.983 63.7005 351.097 63.7969 351.238 63.8438C351.378 63.8906 351.529 63.9141 351.691 63.9141C351.811 63.9141 351.936 63.9036 352.066 63.8828C352.201 63.8568 352.303 63.8359 352.371 63.8203L352.378 65C352.264 65.0365 352.113 65.0703 351.925 65.1016C351.743 65.138 351.522 65.1562 351.261 65.1562C350.907 65.1562 350.582 65.0859 350.285 64.9453C349.988 64.8047 349.751 64.5703 349.574 64.2422C349.402 63.9089 349.316 63.4609 349.316 62.8984V54.4922ZM355.833 53.625L355.732 61.7891H354.427L354.318 53.625H355.833ZM354.271 64.2734C354.271 64.0391 354.341 63.8411 354.482 63.6797C354.628 63.5182 354.841 63.4375 355.122 63.4375C355.399 63.4375 355.609 63.5182 355.755 63.6797C355.906 63.8411 355.982 64.0391 355.982 64.2734C355.982 64.4974 355.906 64.6901 355.755 64.8516C355.609 65.013 355.399 65.0938 355.122 65.0938C354.841 65.0938 354.628 65.013 354.482 64.8516C354.341 64.6901 354.271 64.4974 354.271 64.2734Z" fill="#280C4E"/>
<defs>
<clipPath id="clip0_45_892">
<rect width="88" height="106" fill="white" transform="translate(14)"/>
</clipPath>
</defs>
</svg>
